<?xml version="1.0" encoding="utf-8"?>
<!-- Generator: Adobe Illustrator 18.1.1, SVG Export Plug-In . SVG Version: 6.00 Build 0)  -->
<svg version="1.1" id="Слой_1" xmlns="http://www.w3.org/2000/svg" xmlns:xlink="http://www.w3.org/1999/xlink" x="0px" y="0px"
	 viewBox="0 0 140 160" enable-background="new 0 0 140 160" xml:space="preserve">
<g>
	<linearGradient id="SVGID_1_" gradientUnits="userSpaceOnUse" x1="-4.5035" y1="154.5034" x2="134.3249" y2="15.675">
		<stop  offset="0" style="stop-color:#CFCFCF"/>
		<stop  offset="0.5035" style="stop-color:#FFFFFF"/>
		<stop  offset="1" style="stop-color:#CFCFCF"/>
	</linearGradient>
	<path fill-rule="evenodd" clip-rule="evenodd" fill="url(#SVGID_1_)" d="M0.5,0.5h104.3c19.2,0,34.8,15.6,34.8,34.8v124.3H0.5V0.5z
		"/>
	<path fill="#878787" d="M140,160H0V0h104.8C124.2,0,140,15.8,140,35.2V160z M1,159h138V35.2C139,16.4,123.6,1,104.8,1H1V159z"/>
</g>
<g>
	<g>
		<path fill="#2C509E" d="M21.8,93.4V77.5h4.6V59.4l12.8-8.9v9.1l13.1-9.1v9.1l13.1-9.1v17.7H70l2.4-31.5h7.2l2.1,31.5h5v9.3h2.6
			v15.8H21.8z M68.1,80h10.5v-9.6H68.1V80z M50.2,80h10.5v-9.6H50.2V80z M32.6,80h10.5v-9.6H32.6V80z M65,35.4c-0.3,0-0.5,0-0.8-0.1
			c-0.3-0.1-0.6-0.2-0.8-0.3c-0.3-0.1-0.5-0.2-0.7-0.4c-0.4-0.2-0.7-0.5-1-0.8c-0.2-0.2-0.4-0.5-0.6-0.7c-0.2-0.3-0.3-0.5-0.3-0.6
			l0,0l0.7,0.3l0.8,0.3l0.1,0c0.3,0.1,0.6,0.2,0.9,0.3c0.2,0.1,0.4,0.1,0.6,0.1c0.1,0,0.3,0.1,0.3,0.1c0.1,0,0.2,0,0.3,0
			c0.1,0,0.3,0,0.4,0c0.2,0,0.3,0,0.5,0l0.2,0c0.1,0,0.2-0.1,0.3-0.1c0.1,0,0.2-0.1,0.3-0.1c0.1,0,0.1-0.1,0.2-0.1
			c0.1-0.1,0.3-0.1,0.4-0.2l0.3-0.2c0.1-0.1,0.2-0.1,0.3-0.2l0.6-0.5h0l0-0.1l0.3-0.3l0.3-0.3c0.1-0.1,0.2-0.2,0.3-0.3
			c0.1-0.1,0.2-0.2,0.3-0.3c0.1-0.1,0.2-0.2,0.4-0.3c0.1-0.1,0.2-0.2,0.3-0.3c0.1-0.1,0.3-0.2,0.4-0.3c0.1-0.1,0.2-0.1,0.3-0.2
			c0.5-0.2,1-0.4,1.4-0.4c0.1,0,0.2,0,0.3,0c0.1,0,0.3,0,0.4,0.1c0.1,0,0.2,0.1,0.4,0.1c0.3,0.1,0.5,0.2,0.7,0.3
			c0.4,0.2,0.7,0.5,1,0.8c0.2,0.2,0.4,0.5,0.6,0.7c0.1,0.2,0.2,0.4,0.3,0.5l0.1,0.1l0,0c-0.1,0-0.4-0.1-0.7-0.3l-0.8-0.3
			c-0.3-0.1-0.6-0.3-1-0.4c-0.2-0.1-0.4-0.1-0.5-0.2c-0.1,0-0.3-0.1-0.3-0.1c-0.1,0-0.2,0-0.3-0.1c-0.4-0.1-0.8-0.2-1.3-0.3
			c-0.1,0-0.2,0-0.2,0c-0.2,0-0.4,0-0.6,0.1l-0.1,0.1c-0.2,0.1-0.4,0.2-0.5,0.4l-0.1,0.1c-0.1,0.1-0.3,0.3-0.4,0.5l-0.2,0.4
			l-0.2,0.3l0.2,0.1l-0.1,0.1l-0.1-0.1l0-0.1l0,0.2l0-0.1l-0.4,0.8c-0.1,0.2-0.3,0.4-0.5,0.6l-0.1,0.1c-0.1,0.2-0.3,0.3-0.5,0.4
			c-0.1,0.1-0.2,0.1-0.3,0.2c-0.2,0.1-0.4,0.2-0.6,0.3L66,35.2C65.7,35.3,65.3,35.4,65,35.4z"/>
	</g>
	<g>
		<path fill="#243E7D" d="M72.3,29.7c0.1,0,0.2,0,0.3,0c0.1,0,0.3,0,0.4,0.1c0.1,0,0.2,0.1,0.4,0.1c0.2,0.1,0.4,0.2,0.6,0.3
			c0.3,0.2,0.7,0.4,1,0.7c0.2,0.2,0.4,0.5,0.6,0.7c0.1,0.2,0.2,0.3,0.2,0.4c-0.1,0-0.3-0.1-0.4-0.2l-0.3-0.1l-0.5-0.2
			c-0.3-0.1-0.6-0.2-1-0.4c-0.2-0.1-0.4-0.1-0.5-0.2c0,0-0.1,0-0.1,0l-0.1,0c-0.1,0-0.2,0-0.2-0.1c-0.4-0.1-0.8-0.2-1.3-0.3l0,0l0,0
			c-0.1,0-0.1,0-0.2,0c-0.2,0-0.4,0-0.6,0.1L70,30.8c-0.2,0.1-0.4,0.2-0.6,0.4c0,0-0.1,0.1-0.1,0.1c-0.2,0.2-0.3,0.3-0.4,0.5
			l-0.2,0.4l-0.1,0.2l0,0.1l0,0.1l-0.1,0.2l0,0l-0.3,0.6c-0.1,0.2-0.3,0.4-0.5,0.6l-0.1,0.1c-0.1,0.2-0.3,0.3-0.5,0.4
			c-0.1,0.1-0.2,0.1-0.3,0.2c-0.2,0.1-0.4,0.2-0.6,0.3c-0.1,0-0.2,0.1-0.2,0.1c-0.4,0.1-0.7,0.2-1.1,0.2c-0.3,0-0.5,0-0.7-0.1
			c-0.3-0.1-0.5-0.1-0.8-0.3c-0.2-0.1-0.4-0.2-0.6-0.3c-0.4-0.2-0.7-0.5-0.9-0.8c-0.2-0.2-0.4-0.4-0.6-0.7c-0.1-0.1-0.2-0.3-0.2-0.4
			l0.4,0.2c0.2,0.1,0.5,0.2,0.8,0.3l0.1,0c0.3,0.1,0.6,0.2,0.9,0.3c0.2,0.1,0.4,0.1,0.6,0.1c0,0,0.1,0,0.1,0l0.1,0l0.1,0
			c0.1,0,0.1,0,0.2,0c0.1,0,0.3,0,0.4,0c0.2,0,0.3,0,0.5,0l0.2,0l0,0l0,0c0.1,0,0.1,0,0.2-0.1c0.1,0,0.2-0.1,0.4-0.1
			c0.1,0,0.1-0.1,0.2-0.1c0.1-0.1,0.3-0.1,0.4-0.2c0.1,0,0.1-0.1,0.2-0.1l0,0c0.1,0,0.2-0.1,0.3-0.2l0.6-0.5l0.1,0l0.1-0.1l0.1,0
			l0.1-0.1l0.2-0.2l0.3-0.3c0.1-0.1,0.2-0.2,0.3-0.3c0.1-0.1,0.2-0.2,0.3-0.3c0.1-0.1,0.2-0.2,0.3-0.3c0.1-0.1,0.2-0.2,0.3-0.3
			c0.1-0.1,0.3-0.2,0.4-0.3c0.1-0.1,0.2-0.1,0.3-0.2C71.4,29.8,71.8,29.7,72.3,29.7 M79.6,36.8l2.1,31.3l0,0.2H82h4.8v9v0.3H87h2.4
			v15.6H21.9V77.7h4.4h0.3v-0.3V59.5l12.6-8.7v8.6v0.5l0.4-0.3l12.7-8.8v8.6v0.5l0.4-0.3l12.7-8.8v17.4v0.3h0.3h4.5h0.2l0-0.2
			l2.4-31.3H79.6 M68,80.1h0.3h10.3h0.3v-0.3v-9.4v-0.3h-0.3H68.3H68v0.3v9.4V80.1 M50.1,80.1h0.3h10.3h0.3v-0.3v-9.4v-0.3h-0.3
			H50.4h-0.3v0.3v9.4V80.1 M32.4,80.1h0.3h10.3h0.3v-0.3v-9.4v-0.3h-0.3H32.7h-0.3v0.3v9.4V80.1 M72.3,29.5c-0.5,0-1,0.2-1.5,0.4
			c-0.3,0.2-0.5,0.3-0.8,0.5c-0.2,0.2-0.5,0.3-0.7,0.5c-0.2,0.2-0.5,0.4-0.7,0.6l-0.3,0.3l-0.2,0.2L68,32l0,0l0,0l0,0l0,0
			c0,0,0,0,0,0c0,0,0,0,0,0c0,0,0,0,0,0l-0.7,0.6c-0.1,0.1-0.2,0.2-0.3,0.2c-0.1,0.1-0.2,0.1-0.3,0.2c-0.2,0.1-0.4,0.2-0.6,0.3
			c-0.2,0.1-0.4,0.1-0.6,0.2c-0.2,0-0.5,0-0.7,0c-0.1,0-0.3,0-0.4,0c-0.1,0-0.2,0-0.3,0c-0.1,0-0.2,0-0.3-0.1
			c-0.2,0-0.4-0.1-0.5-0.1c-0.4-0.1-0.7-0.2-1-0.3c-0.3-0.1-0.6-0.2-0.8-0.3c-0.5-0.2-0.7-0.3-0.7-0.3l-0.1,0.1c0,0,0.1,0.3,0.4,0.7
			c0.1,0.2,0.3,0.5,0.6,0.8c0.3,0.3,0.6,0.6,1,0.8c0.2,0.1,0.4,0.3,0.7,0.4c0.2,0.1,0.5,0.2,0.8,0.3c0.2,0.1,0.5,0.1,0.8,0.1
			c0.4,0,0.8-0.1,1.1-0.2c0.3-0.1,0.6-0.3,0.9-0.4c0.3-0.2,0.6-0.4,0.8-0.6c0.2-0.3,0.5-0.5,0.6-0.8l0.4-0.8c0,0,0,0,0,0
			c0,0,0,0,0,0l0,0l0,0l0,0l0,0l0-0.1l0.1-0.2l0.2-0.4c0.1-0.2,0.3-0.4,0.5-0.6c0.2-0.2,0.4-0.3,0.6-0.4c0.2-0.1,0.5-0.1,0.7-0.1
			c0.5,0,0.9,0.2,1.2,0.3c0.1,0,0.2,0.1,0.3,0.1c0.1,0,0.2,0.1,0.3,0.1c0.2,0,0.4,0.1,0.5,0.2c0.3,0.1,0.7,0.3,1,0.4
			c0.3,0.1,0.6,0.2,0.8,0.3c0.5,0.2,0.8,0.3,0.8,0.3l0.1-0.1c0,0,0-0.1-0.1-0.2c-0.1-0.1-0.1-0.3-0.3-0.6c-0.1-0.2-0.3-0.5-0.6-0.8
			c-0.3-0.3-0.6-0.5-1-0.8c-0.2-0.1-0.4-0.2-0.7-0.3c-0.1,0-0.3-0.1-0.4-0.1c-0.1,0-0.3,0-0.4-0.1C72.4,29.5,72.3,29.5,72.3,29.5
			L72.3,29.5z M68.8,32.6C68.8,32.6,68.8,32.6,68.8,32.6L68.8,32.6C68.8,32.6,68.8,32.6,68.8,32.6L68.8,32.6z M79.8,36.6h-7.5
			l-2.4,31.5h-4.5V50.3l-13.1,9.1v-9.1l-13.1,9.1v-9.1l-13.1,9.1v18h-4.6v16.1h68V77.4H87v-9.3h-5L79.8,36.6L79.8,36.6z M68.3,79.9
			v-9.4h10.3v9.4H68.3L68.3,79.9z M50.4,79.9v-9.4h10.3v9.4H50.4L50.4,79.9z M32.7,79.9v-9.4h10.3v9.4H32.7L32.7,79.9z M89.6,77.4
			L89.6,77.4L89.6,77.4L89.6,77.4z"/>
	</g>
</g>
</svg>
