<?xml version="1.0" encoding="utf-8"?>
<!-- Generator: Adobe Illustrator 18.1.1, SVG Export Plug-In . SVG Version: 6.00 Build 0)  -->
<svg version="1.1" id="Слой_1" xmlns="http://www.w3.org/2000/svg" xmlns:xlink="http://www.w3.org/1999/xlink" x="0px" y="0px"
	 viewBox="0 0 140 140" enable-background="new 0 0 140 140" xml:space="preserve">
<g>
	<linearGradient id="SVGID_1_" gradientUnits="userSpaceOnUse" x1="0.4965" y1="139.5034" x2="129.3249" y2="10.675">
		<stop  offset="0" style="stop-color:#CFCFCF"/>
		<stop  offset="0.5035" style="stop-color:#FFFFFF"/>
		<stop  offset="1" style="stop-color:#CFCFCF"/>
	</linearGradient>
	<path fill-rule="evenodd" clip-rule="evenodd" fill="url(#SVGID_1_)" d="M0.5,0.5h104.3c19.2,0,34.8,15.6,34.8,34.8v104.3H0.5V0.5z
		"/>
	<path fill="#878787" d="M140,140H0V0h104.8C124.2,0,140,15.8,140,35.2V140z M1,139h138V35.2C139,16.4,123.6,1,104.8,1H1V139z"/>
</g>
<g>
	<g>
		<path fill="#C3C3C3" d="M55.8,86.4V72.1c0-0.7-0.6-1.2-1.2-1.2h-4.3V70h1c0.7,0,1.2-0.6,1.2-1.2s-0.6-1.2-1.2-1.2h-4.4
			c-0.7,0-1.2,0.6-1.2,1.2s0.6,1.2,1.2,1.2h1v0.9h-4.3c-0.4,0-0.8,0.2-1,0.5l-2.2,3.3c-0.1,0.2-0.2,0.4-0.2,0.7v3.3
			c0,0.1,0,0.3,0.1,0.4l0.9,7.3h-0.8c-1.5,0-2.9-0.8-3.7-2.2l0-0.1H25.9c-1.8,0-3.2-1.4-3.2-3.2v-3.9c0-1.3,0.6-2.6,1.7-3.4l11.9-9
			c0.1-0.1,0.2-0.1,0.3-0.1c1.3-2.8,4-4.5,7-4.5h6.7v-3.5c0-2.4,1.9-4.3,4.3-4.3s4.3,1.9,4.3,4.3V60H59c3.7,0,5.4,5.9,5.4,9.9v1.2
			h35c3.6,0,6.5,2.9,6.5,6.5s-2.9,6.5-6.5,6.5H64.2l0,0.1c-0.5,1.3-1.7,2.1-3,2.1H55.8z M64.4,82.2h35c2.5,0,4.5-2,4.5-4.6
			s-2-4.6-4.5-4.6h-35V82.2z M29.6,77.8H36v-4.8L29.6,77.8z M54.6,54.2c-1.3,0-2.3,1.1-2.3,2.3V60h4.7v-3.5
			C56.9,55.3,55.9,54.2,54.6,54.2z M43.5,86.4l-0.9-7.8l0-2.8l1.6-2.4h9.2v13.1H43.5z M46.9,79.7c-0.7,0-1.2,0.6-1.2,1.2
			s0.6,1.2,1.2,1.2h3.3c0.7,0,1.2-0.6,1.2-1.2s-0.6-1.2-1.2-1.2H46.9z M46.9,75.3c-0.7,0-1.2,0.6-1.2,1.2s0.6,1.2,1.2,1.2h3.3
			c0.7,0,1.2-0.6,1.2-1.2s-0.6-1.2-1.2-1.2H46.9z M67.8,78.6c-0.5,0-1-0.4-1-1s0.4-1,1-1h31.5c0.5,0,1,0.4,1,1s-0.4,1-1,1H67.8z"/>
	</g>
	<g>
		<path fill="#A8A8A7" d="M54.6,52.4c2.3,0,4.2,1.9,4.2,4.2v3.3v0.3H59c3.6,0,5.3,5.8,5.3,9.7V71v0.3h0.3h34.9
			c3.5,0,6.4,2.9,6.4,6.4s-2.9,6.4-6.4,6.4H64.3h-0.2l-0.1,0.2c-0.4,1.2-1.6,2.1-2.9,2.1H56V72.1c0-0.7-0.6-1.4-1.4-1.4h-4.2v-0.6
			h0.9c0.7,0,1.4-0.6,1.4-1.4c0-0.7-0.6-1.4-1.4-1.4h-4.4c-0.7,0-1.4,0.6-1.4,1.4c0,0.7,0.6,1.4,1.4,1.4h0.9v0.6h-4.2
			c-0.5,0-0.9,0.2-1.1,0.6l-2.2,3.3c-0.1,0.2-0.2,0.5-0.2,0.8v3.3c0,0.1,0,0.3,0.1,0.4l0.9,7.1h-0.7c-1.5,0-2.8-0.8-3.6-2.1L36.6,84
			h-0.1H25.9c-1.7,0-3.1-1.4-3.1-3.1v-3.9c0-1.3,0.6-2.5,1.7-3.3l11.9-9c0.1,0,0.1-0.1,0.2-0.1l0.1,0l0-0.1c1.2-2.7,3.9-4.4,6.8-4.4
			h6.6h0.3v-0.3v-3.3C50.4,54.2,52.3,52.4,54.6,52.4 M52.1,60.1h0.3h4.4h0.3v-0.3v-3.3c0-1.4-1.1-2.5-2.5-2.5
			c-1.4,0-2.5,1.1-2.5,2.5v3.3V60.1 M29.2,77.9H30h5.9h0.3v-0.3v-4.4v-0.5L35.7,73l-5.9,4.4L29.2,77.9 M64.3,82.3h0.3h34.9
			c2.6,0,4.7-2.1,4.7-4.7c0-2.6-2.1-4.7-4.7-4.7H64.5h-0.3v0.3v8.9V82.3 M53.3,73.4v12.8h-9.7l-0.9-7.7v-2.7l1.6-2.4H53.3
			 M46.9,77.9h3.3c0.7,0,1.4-0.6,1.4-1.4c0-0.7-0.6-1.4-1.4-1.4h-3.3c-0.7,0-1.4,0.6-1.4,1.4C45.5,77.3,46.1,77.9,46.9,77.9
			 M46.9,82.3h3.3c0.7,0,1.4-0.6,1.4-1.4c0-0.7-0.6-1.4-1.4-1.4h-3.3c-0.7,0-1.4,0.6-1.4,1.4C45.5,81.7,46.1,82.3,46.9,82.3
			 M99.4,76.8c0.5,0,0.9,0.4,0.9,0.9c0,0.5-0.4,0.9-0.9,0.9H67.8c-0.5,0-0.9-0.4-0.9-0.9c0-0.5,0.4-0.9,0.9-0.9H99.4 M54.6,52.1
			c-2.4,0-4.4,2-4.4,4.4v3.3h-6.6c-3.1,0-5.8,1.9-7,4.5c-0.1,0-0.2,0.1-0.3,0.2l-11.9,9c-1.1,0.8-1.8,2.1-1.8,3.5v3.9
			c0,1.8,1.5,3.3,3.3,3.3h10.5c0.8,1.3,2.2,2.2,3.8,2.2h1l-0.9-7.4c0-0.1-0.1-0.2-0.1-0.3v-3.3c0-0.2,0.1-0.4,0.2-0.6l2.2-3.3
			c0.2-0.3,0.6-0.5,0.9-0.5H48v-1.1h-1.1c-0.6,0-1.1-0.5-1.1-1.1c0-0.6,0.5-1.1,1.1-1.1h4.4c0.6,0,1.1,0.5,1.1,1.1
			c0,0.6-0.5,1.1-1.1,1.1h-1.1V71h4.4c0.6,0,1.1,0.5,1.1,1.1v14.4h5.5c1.4,0,2.7-0.9,3.1-2.2h35.1c3.7,0,6.6-3,6.6-6.7
			s-3-6.7-6.6-6.7H64.5v-1.1c0-4-1.8-10-5.5-10v-3.3C59,54.1,57,52.1,54.6,52.1L54.6,52.1z M52.4,59.9v-3.3c0-1.2,1-2.2,2.2-2.2
			c1.2,0,2.2,1,2.2,2.2v3.3H52.4L52.4,59.9z M64.5,82.1v-8.9h34.9c2.4,0,4.4,2,4.4,4.4s-2,4.4-4.4,4.4H64.5L64.5,82.1z M30,77.6
			l5.9-4.4v4.4H30L30,77.6z M53.5,73.2h-9.3l-1.7,2.6v2.8l0.9,7.9h10.1V73.2L53.5,73.2z M46.9,77.6c-0.6,0-1.1-0.5-1.1-1.1
			c0-0.6,0.5-1.1,1.1-1.1h3.3c0.6,0,1.1,0.5,1.1,1.1c0,0.6-0.5,1.1-1.1,1.1H46.9L46.9,77.6z M46.9,82.1c-0.6,0-1.1-0.5-1.1-1.1
			c0-0.6,0.5-1.1,1.1-1.1h3.3c0.6,0,1.1,0.5,1.1,1.1c0,0.6-0.5,1.1-1.1,1.1H46.9L46.9,82.1z M99.4,76.5H67.8c-0.6,0-1.1,0.5-1.1,1.1
			c0,0.6,0.5,1.1,1.1,1.1h31.5c0.6,0,1.1-0.5,1.1-1.1C100.5,77,100,76.5,99.4,76.5L99.4,76.5z"/>
	</g>
</g>
</svg>
