<?xml version="1.0" encoding="utf-8"?>
<!-- Generator: Adobe Illustrator 18.1.1, SVG Export Plug-In . SVG Version: 6.00 Build 0)  -->
<svg version="1.1" id="Слой_1" xmlns="http://www.w3.org/2000/svg" xmlns:xlink="http://www.w3.org/1999/xlink" x="0px" y="0px"
	 viewBox="0 0 140 140" enable-background="new 0 0 140 140" xml:space="preserve">
<g>
	<linearGradient id="SVGID_1_" gradientUnits="userSpaceOnUse" x1="0.4965" y1="139.5034" x2="129.3249" y2="10.675">
		<stop  offset="0" style="stop-color:#CFCFCF"/>
		<stop  offset="0.5035" style="stop-color:#FFFFFF"/>
		<stop  offset="1" style="stop-color:#CFCFCF"/>
	</linearGradient>
	<path fill-rule="evenodd" clip-rule="evenodd" fill="url(#SVGID_1_)" d="M0.5,0.5h104.3c19.2,0,34.8,15.6,34.8,34.8v104.3H0.5V0.5z
		"/>
	<path fill="#878787" d="M140,140H0V0h104.8C124.2,0,140,15.8,140,35.2V140z M1,139h138V35.2C139,16.4,123.6,1,104.8,1H1V139z"/>
</g>
<g>
	<g>
		<path fill="#C3C3C3" d="M24,82.3c-0.3,0-0.5-0.1-0.7-0.2c-0.3-0.3-0.5-0.6-0.5-1l0-16.3c0-0.3,0.1-0.7,0.4-0.9
			c0.2-0.2,0.6-0.4,0.9-0.4l28.6,0l0-1.2l-2.3-2.4c-0.2-0.2-0.4-0.6-0.4-0.9c0-0.3,0.1-0.7,0.4-0.9c0.2-0.2,0.6-0.4,0.9-0.4
			c0.3,0,0.7,0.1,0.9,0.4l2.3,2.3l62.9,0.1l0-0.9c0-0.7,0.6-1.3,1.3-1.3c0.3,0,0.7,0.1,0.9,0.4c0.2,0.2,0.4,0.6,0.4,0.9l0,0.9l3,0
			c0.7,0,1.3,0.6,1.3,1.3l0,5.1c0,0.3-0.1,0.7-0.4,0.9c-0.2,0.2-0.6,0.4-0.9,0.4l-42.5,0l0,0.1c-0.7,1.6-2.3,2.7-4.1,2.7l-14.1,0
			l0,0.1c0,0.2,0,0.4,0,0.6c0,3.5-2.8,6.3-6.3,6.3c-1.3,0-2.6-0.4-3.7-1.2c-0.7-0.5-1.3-1.1-1.7-1.8l0-0.1l-26.2,7.3
			C24.2,82.3,24.1,82.3,24,82.3z M52.7,73.5L52.7,73.5c0.7,1.2,1.9,1.9,3.3,1.9c2.1,0,3.7-1.7,3.7-3.7c0-0.2,0-0.5-0.1-0.7l0-0.1h-3
			l0.2,0.2c0.3,0.3,0.4,0.7,0.3,1c0,0.3-0.2,0.6-0.5,0.9c-0.2,0.2-0.5,0.3-0.8,0.3c-0.3,0-0.5-0.1-0.7-0.2c-0.1-0.1-0.2-0.1-0.2-0.2
			l-0.9-1.1L52.7,73.5z M55.1,68.4l21.1,0c1,0,1.9-0.8,1.9-1.9l0-3.5l-23,0L55.1,68.4z M80.7,65.6l40.8,0V63l-40.8,0L80.7,65.6z"/>
	</g>
	<g>
		<path fill="#A8A8A7" d="M51.2,57.9c0.3,0,0.6,0.1,0.8,0.3l2.3,2.3l0.1,0.1h0.1l62.7,0l0.2,0l0-0.2l0-0.7c0-0.6,0.5-1.2,1.2-1.2
			c0.3,0,0.6,0.1,0.8,0.3c0.2,0.2,0.3,0.5,0.3,0.8l0,0.7l0,0.3l0.3,0l2.9,0c0.6,0,1.2,0.5,1.2,1.2l0,5.1c0,0.3-0.1,0.6-0.3,0.8
			c-0.2,0.2-0.5,0.3-0.8,0.3l-42.4,0h-0.2l-0.1,0.2c-0.7,1.6-2.2,2.6-4,2.6l-13.9,0l-0.3,0l0,0.3c0,0.2,0,0.4,0,0.6
			c0,3.4-2.8,6.2-6.2,6.2c-1.3,0-2.5-0.4-3.6-1.2c-0.7-0.5-1.2-1.1-1.7-1.8l-0.1-0.2l-0.2,0.1l-26.1,7.3c-0.1,0-0.2,0-0.3,0
			c-0.2,0-0.5-0.1-0.7-0.2c-0.3-0.2-0.5-0.6-0.5-0.9l0-16.3c0-0.3,0.1-0.6,0.3-0.8c0.2-0.2,0.5-0.3,0.8-0.3l28.5,0l0.2,0l0-0.2l0-1
			l0-0.1l-0.1-0.1l-2.3-2.3C50.1,59.6,50,59.3,50,59c0-0.3,0.1-0.6,0.3-0.8C50.6,58,50.9,57.9,51.2,57.9 M76.3,68.5L76.3,68.5
			c1.1,0,2-0.9,2-2l0-3.4l0-0.3l-0.3,0l-22.8,0l-0.3,0l0,0.3l0,5.1l0,0.2l0.2,0L76.3,68.5 M121.7,65.7v-0.3v-2.3v-0.2l-0.2,0
			l-40.6,0l-0.3,0l0,0.3l0,2.3l0,0.2l0.2,0l40.6,0L121.7,65.7 M55.8,73.2c-0.2,0-0.5-0.1-0.7-0.2c-0.1-0.1-0.2-0.1-0.2-0.2l-0.8-0.9
			l-0.2-0.3l-0.2,0.3l-1.1,1.6l-0.1,0.1l0.1,0.1c0.7,1.2,2,1.9,3.3,1.9c2.1,0,3.9-1.7,3.9-3.9c0-0.2,0-0.5-0.1-0.7l0-0.2h-0.2h-2.7
			h-0.5l0.3,0.4l0.1,0.1c0.2,0.2,0.3,0.5,0.3,0.8c0,0.3-0.2,0.6-0.4,0.8C56.3,73.1,56.1,73.2,55.8,73.2 M51.2,57.6
			c-0.4,0-0.7,0.1-1,0.4c-0.5,0.5-0.5,1.4,0,2l2.3,2.3l0,1l-28.5,0c-0.4,0-0.7,0.1-1,0.4c-0.3,0.3-0.4,0.6-0.4,1l0,16.3
			c0,0.4,0.2,0.9,0.6,1.1c0,0,0,0,0,0c0.2,0.2,0.5,0.3,0.8,0.3c0.1,0,0.3,0,0.4-0.1l26.1-7.3c0.5,0.7,1,1.4,1.7,1.9
			c1.1,0.8,2.4,1.2,3.7,1.2c0,0,0,0,0,0c3.5,0,6.4-2.9,6.4-6.4c0-0.2,0-0.4,0-0.7l13.9,0c1.9,0,3.5-1.2,4.2-2.8l42.4,0c0,0,0,0,0,0
			c0.4,0,0.7-0.1,1-0.4c0.3-0.3,0.4-0.6,0.4-1l0-5.1c0-0.8-0.6-1.4-1.4-1.4l-2.9,0l0-0.7c0-0.8-0.6-1.4-1.4-1.4
			c-0.8,0-1.4,0.6-1.4,1.4l0,0.7l-62.7,0L52.2,58C51.9,57.8,51.5,57.6,51.2,57.6L51.2,57.6z M76.3,68.2l-21,0l0-5.1l22.8,0l0,3.4
			C78,67.5,77.2,68.2,76.3,68.2L76.3,68.2z M121.4,65.5l-40.6,0l0-2.3l40.6,0V65.5L121.4,65.5z M55.8,73.4c0.3,0,0.6-0.1,0.9-0.3
			c0.6-0.5,0.7-1.4,0.2-2L56.8,71h2.7c0,0.2,0.1,0.4,0.1,0.7c0,2-1.6,3.6-3.6,3.6c-1.3,0-2.5-0.7-3.1-1.8l1.1-1.6l0.8,0.9
			c0.1,0.1,0.2,0.2,0.3,0.3C55.2,73.3,55.5,73.4,55.8,73.4L55.8,73.4z"/>
	</g>
</g>
</svg>
