<?xml version="1.0" encoding="utf-8"?>
<!-- Generator: Adobe Illustrator 18.1.1, SVG Export Plug-In . SVG Version: 6.00 Build 0)  -->
<svg version="1.1" id="Слой_1" xmlns="http://www.w3.org/2000/svg" xmlns:xlink="http://www.w3.org/1999/xlink" x="0px" y="0px"
	 viewBox="0 0 140 160" enable-background="new 0 0 140 160" xml:space="preserve">
<g>
	<linearGradient id="SVGID_1_" gradientUnits="userSpaceOnUse" x1="-4.5035" y1="154.5034" x2="134.3249" y2="15.675">
		<stop  offset="0" style="stop-color:#CFCFCF"/>
		<stop  offset="0.5035" style="stop-color:#FFFFFF"/>
		<stop  offset="1" style="stop-color:#CFCFCF"/>
	</linearGradient>
	<path fill-rule="evenodd" clip-rule="evenodd" fill="url(#SVGID_1_)" d="M0.5,0.5h104.3c19.2,0,34.8,15.6,34.8,34.8v124.3H0.5V0.5z
		"/>
	<path fill="#878787" d="M140,160H0V0h104.8C124.2,0,140,15.8,140,35.2V160z M1,159h138V35.2C139,16.4,123.6,1,104.8,1H1V159z"/>
</g>
<g>
	<g>
		<path fill="#2C509E" d="M33.2,93.4c-6.1,0-11-5-11-11s4.9-11,11-11c6.1,0,11,5,11,11S39.3,93.4,33.2,93.4z M33.2,74.9
			c-4.1,0-7.4,3.3-7.4,7.4s3.3,7.4,7.4,7.4c4.1,0,7.4-3.3,7.4-7.4S37.3,74.9,33.2,74.9z M65.5,93.2c-4.6,0-8.4-3.8-8.4-8.4
			s3.8-8.4,8.4-8.4c4.6,0,8.4,3.8,8.4,8.4S70.1,93.2,65.5,93.2z M65.5,79.5c-2.9,0-5.3,2.4-5.3,5.3c0,2.9,2.4,5.3,5.3,5.3
			c2.9,0,5.3-2.4,5.3-5.3C70.8,81.9,68.4,79.5,65.5,79.5z M45.5,85.1c0.2-0.9,0.3-1.8,0.3-2.6c0-0.3,0-0.6,0-0.9H56
			c-0.4,1.1-0.7,2.3-0.7,3.6L45.5,85.1z M78.3,84.4L78.3,84.4l-3,0c-0.1-5.5-4.5-9.9-10-9.9c-3.7,0-7.1,2-8.8,5.3H45.6
			c-1-5.9-6.2-10.4-12.2-10.4c-4.2,0-8.2,2.2-10.4,5.8v-2.6c0-4.8,3.9-8.7,8.7-8.7c0.5,0,1,0.1,1.6,0.2l0.1,0V49.5h-2.8
			c-0.8,0-1.4-0.6-1.4-1.4c0-0.8,0.6-1.4,1.4-1.4h20.9c0.7,0,1.2,0.4,1.4,1.1l6.5,18.9l19.7,4.3c0.8,0,1.5,0.7,1.5,1.4L81,82.9
			c0,0.8-0.6,1.4-1.4,1.4H78.3z M36.3,60h0.9c0.1,0,8.5,0.3,10.4,6l0,0.1h8.6l-5.9-16.6H36.3V60z"/>
	</g>
	<g>
		<path fill="#243E7D" d="M51.5,46.7c0.6,0,1.1,0.4,1.3,1l6.4,18.8l0,0.1l0.1,0L79.1,71l0,0h0c0.7,0,1.3,0.6,1.3,1.3l0.4,10.6
			c0,0.7-0.6,1.3-1.3,1.3h-1.1l0,0l-0.3,0l-2.7,0c-0.1-5.5-4.6-9.9-10.1-9.9c-3.7,0-7.1,2-8.9,5.3H45.7c-1-5.9-6.2-10.4-12.3-10.4
			c-4.1,0-8,2.1-10.3,5.5v-2.2c0-4.7,3.8-8.6,8.5-8.6c0.5,0,1,0,1.6,0.2l0.3,0.1v-0.3V49.6v-0.3h-0.3h-2.6c-0.7,0-1.3-0.6-1.3-1.3
			c0-0.7,0.6-1.3,1.3-1.3H51.5 M36.2,60.1h0.3h0.8c0.1,0,8.5,0.3,10.3,6l0.1,0.2h0.2h8.4h0.4l-0.1-0.3l-5.8-16.3l-0.1-0.2h-0.2H36.4
			h-0.3v0.3v10.2V60.1 M33.2,71.4c6,0,10.9,4.9,10.9,10.9c0,6-4.9,10.9-10.9,10.9c-6,0-10.9-4.9-10.9-10.9
			C22.3,76.3,27.2,71.4,33.2,71.4 M33.2,89.9c4.2,0,7.5-3.4,7.5-7.6c0-4.2-3.4-7.6-7.5-7.6c-4.2,0-7.5,3.4-7.5,7.6
			C25.7,86.5,29.1,89.9,33.2,89.9 M65.5,76.5c4.5,0,8.2,3.7,8.2,8.3c0,4.6-3.7,8.3-8.2,8.3c-4.5,0-8.2-3.7-8.2-8.3
			C57.2,80.2,60.9,76.5,65.5,76.5 M65.5,90.2c3,0,5.4-2.4,5.4-5.4c0-3-2.4-5.4-5.4-5.4c-3,0-5.4,2.4-5.4,5.4
			C60.1,87.7,62.5,90.2,65.5,90.2 M55.8,81.7c-0.4,1.1-0.6,2.2-0.6,3.3l-9.6,0c0.2-0.8,0.3-1.7,0.3-2.5c0-0.3,0-0.5,0-0.8H55.8
			 M51.5,46.5H30.6c-0.9,0-1.6,0.7-1.6,1.6c0,0.9,0.7,1.6,1.6,1.6h2.6v14.3c-0.5-0.1-1.1-0.2-1.6-0.2c-4.9,0-8.8,3.9-8.8,8.8v3
			c2.1-3.6,6-6.1,10.5-6.1c6.1,0,11.2,4.5,12.1,10.4h11.1c1.7-3.2,5-5.3,8.8-5.3c5.5,0,9.9,4.4,9.9,9.9l3,0c0.1,0-1.8,0-1.8,0h3.1
			c0.9,0,1.6-0.7,1.6-1.6l-0.4-10.6c0-0.9-0.7-1.6-1.6-1.6l-19.7-4.3L53,47.7C52.9,47,52.2,46.5,51.5,46.5L51.5,46.5z M36.4,59.8
			V49.6h13.9L56.2,66h-8.4c-1.9-5.6-9.8-6.1-10.6-6.1H36.4L36.4,59.8z M33.2,71.2c-6.1,0-11.1,5-11.1,11.2c0,6.2,5,11.2,11.1,11.2
			c6.1,0,11.1-5,11.1-11.2C44.4,76.2,39.4,71.2,33.2,71.2L33.2,71.2z M33.2,89.6c-4,0-7.3-3.3-7.3-7.3c0-4,3.3-7.3,7.3-7.3
			c4,0,7.3,3.3,7.3,7.3C40.5,86.4,37.2,89.6,33.2,89.6L33.2,89.6z M65.5,76.2c-4.7,0-8.5,3.8-8.5,8.5c0,4.7,3.8,8.5,8.5,8.5
			c4.7,0,8.5-3.8,8.5-8.5C74,80.1,70.2,76.2,65.5,76.2L65.5,76.2z M65.5,89.9c-2.8,0-5.1-2.3-5.1-5.1s2.3-5.1,5.1-5.1
			c2.8,0,5.1,2.3,5.1,5.1S68.3,89.9,65.5,89.9L65.5,89.9z M56.2,81.5H45.6c0,0.4,0.1,0.7,0.1,1.1c0,0.9-0.1,1.9-0.3,2.7l10.1,0
			C55.4,83.9,55.7,82.6,56.2,81.5L56.2,81.5z"/>
	</g>
</g>
</svg>
