<?xml version="1.0" encoding="utf-8"?>
<!-- Generator: Adobe Illustrator 18.1.1, SVG Export Plug-In . SVG Version: 6.00 Build 0)  -->
<svg version="1.1" id="Слой_1" xmlns="http://www.w3.org/2000/svg" xmlns:xlink="http://www.w3.org/1999/xlink" x="0px" y="0px"
	 viewBox="0 0 140 140" enable-background="new 0 0 140 140" xml:space="preserve">
<g>
	<linearGradient id="SVGID_1_" gradientUnits="userSpaceOnUse" x1="0.4965" y1="139.5034" x2="129.3249" y2="10.675">
		<stop  offset="0" style="stop-color:#CFCFCF"/>
		<stop  offset="0.5035" style="stop-color:#FFFFFF"/>
		<stop  offset="1" style="stop-color:#CFCFCF"/>
	</linearGradient>
	<path fill-rule="evenodd" clip-rule="evenodd" fill="url(#SVGID_1_)" d="M0.5,0.5h104.3c19.2,0,34.8,15.6,34.8,34.8v104.3H0.5V0.5z
		"/>
	<path fill="#878787" d="M140,140H0V0h104.8C124.2,0,140,15.8,140,35.2V140z M1,139h138V35.2C139,16.4,123.6,1,104.8,1H1V139z"/>
</g>
<g>
	<g>
		<g>
			<path fill="#C3C3C3" d="M57.3,77.3c-1.5-1.4-4.7-4.2-6.2-5c-2.1-1.1-10.3-1.2-12.8-1.2c-3.1,0-6.2,0.1-9,0.3
				c-2.1,0.2-3.2,1.2-3.4,1.4l-2.7,3V52.7h43.5v5.5H67v21.6L57.3,77.3z"/>
			<path fill="#A8A8A7" d="M66.5,52.8V58v0.3h0.3h0.2v21.3l-9.5-2.4c-0.5-0.5-4.5-4.1-6.3-5C48.9,71.1,40.7,71,38.3,71
				c-3.1,0-6.3,0.1-9,0.3c-2.1,0.2-3.2,1.2-3.5,1.5l-2.5,2.8V52.8H66.5 M66.7,52.6H23v23.7l2.9-3.3c0.3-0.3,1.3-1.2,3.4-1.4
				c2.8-0.2,5.9-0.3,9-0.3c2.5,0,10.6,0.1,12.8,1.1c1.6,0.8,5,3.8,6.3,5l9.9,2.5V58h-0.5V52.6L66.7,52.6z"/>
		</g>
	</g>
	<g>
		<g>
			<path fill="#C3C3C3" d="M77.6,85.9c-2.5,0-4.6-1.7-5.2-4l-0.1-0.2h-2.8L69,80.3l-0.8-0.2v0h3.9l0-0.3c0-0.2,0.1-0.4,0.1-0.6
				l0.1-0.4h-4.2V58.1h12l7.7,9.9l0,6.2l1.2,1.3l0,3.3l-6.2,0l0.1,0.4c0,0.2,0.1,0.4,0.1,0.6l0,0.3h5.1l0,1.6h-5.2l-0.1,0.2
				C82.2,84.3,80.1,85.9,77.6,85.9z M77.6,77.5c-1.7,0-3,1.4-3,3s1.4,3,3,3s3-1.4,3-3S79.3,77.5,77.6,77.5z M70,67.8h15.2l-5.7-7.9
				H70V67.8z"/>
			<path fill="#A8A8A7" d="M80.2,58.3l7.6,9.8v6.2v0.1l0.1,0.1l1.1,1.1v3.1l-6,0l-0.3,0l0.1,0.3l0.1,0.2c0,0.2,0.1,0.4,0.1,0.6
				l0,0.2l0,0.2h0.2H88l0,1.4H83h-0.2l-0.1,0.2l0,0.1c-0.6,2.3-2.7,3.9-5.1,3.9c-2.4,0-4.5-1.6-5.1-3.9l0-0.1l0-0.2h-0.2h-2.6
				l-0.4-1.2l0-0.1l-0.1,0h3h0.2l0-0.2l0-0.2c0-0.2,0.1-0.4,0.1-0.6l0.1-0.2l0.1-0.3h-0.3h-3.9V58.3H80.2 M69.8,67.9h0.3h14.8h0.5
				l-0.3-0.4l-5.5-7.6l-0.1-0.1h-0.1h-9.3h-0.3V60v7.6V67.9 M77.6,83.7c1.7,0,3.2-1.4,3.2-3.2c0-1.7-1.4-3.2-3.2-3.2
				c-1.7,0-3.2,1.4-3.2,3.2C74.5,82.3,75.9,83.7,77.6,83.7 M80.3,58H68.1v21h4.2l-0.1,0.2c0,0.2-0.1,0.4-0.1,0.6l0,0.2h-4v0.3
				l0.8,0.2l0.5,1.4h2.8l0,0.1c0.7,2.4,2.9,4.1,5.4,4.1c2.5,0,4.7-1.7,5.4-4.1l0-0.1h5.2l0-1.9h-5.1l0-0.2c0-0.2-0.1-0.4-0.1-0.6
				L83,79l6.2,0v-3.5L88,74.3v-6.3L80.3,58L80.3,58z M70.1,67.7V60h9.3l5.5,7.6H70.1L70.1,67.7z M77.6,83.4c-1.6,0-2.9-1.3-2.9-2.9
				c0-1.6,1.3-2.9,2.9-2.9c1.6,0,2.9,1.3,2.9,2.9C80.5,82.1,79.2,83.4,77.6,83.4L77.6,83.4z"/>
		</g>
	</g>
	<g>
		<g>
			<path fill="#C3C3C3" d="M59.9,93.2c-2.1,0-3.9-1.7-4.1-3.8l0-0.3l-23.1,0l0,0.3c-0.2,2.1-2,3.8-4.1,3.8c-1.7,0-3.3-1.1-3.9-2.7
				l-0.1-0.2h-2.3v-1.2h-0.7l0-4.9l1.1-3.5l5.4-6c0,0,0.5-0.5,1.7-0.6c2.7-0.2,5.7-0.3,8.8-0.3c5.6,0,10.6,0.4,11.6,0.9
				c1.4,0.7,5.7,4.6,6.1,5l11,2.9l1,2.7l0.9,0.8l-0.6,3.1h-0.8v1.2h-3.8l-0.1,0.2C63.2,92.2,61.6,93.2,59.9,93.2z M59.9,87.2
				c-1.1,0-1.9,0.9-1.9,1.9c0,1.1,0.9,1.9,1.9,1.9s1.9-0.9,1.9-1.9C61.9,88,61,87.2,59.9,87.2z M28.5,87.2c-1.1,0-1.9,0.9-1.9,1.9
				c0,0.5,0.2,1,0.6,1.4c0.4,0.4,0.9,0.6,1.4,0.6c1.1,0,1.9-0.9,1.9-1.9C30.4,88,29.6,87.2,28.5,87.2z M40.6,80h11.8l-3.6-4.5
				l-0.1,0c0,0-5.1-0.4-7.8-0.5l-0.3,0V80z M36.7,75.1c-3.7,0-6.3,0.3-6.4,0.3l0,0l-0.1,0L26.5,80h11.8v-4.9l-0.3,0
				C37.6,75.1,37.2,75.1,36.7,75.1z"/>
			<path fill="#A8A8A7" d="M38.5,74c5.5,0,10.6,0.4,11.5,0.9c1.5,0.7,6.1,4.9,6.1,5l0,0l0.1,0l10.9,2.8l1,2.7l0,0.1l0,0l0.8,0.8
				l-0.5,2.9h-0.6h-0.3v0.3v0.9H64h-0.2l-0.1,0.2l0,0.1c-0.6,1.6-2.1,2.6-3.8,2.6c-2.1,0-3.8-1.6-4-3.7l0-0.2l0-0.2h-0.2l-22.9,0
				h-0.2l0,0.2l0,0.2c-0.2,2-1.9,3.7-4,3.7c-1.7,0-3.2-1-3.8-2.6l0-0.1l-0.1-0.2h-0.2h-2.1v-0.9v-0.3h-0.3h-0.5l0-4.7l1.1-3.5l5.3-6
				c0.1-0.1,0.6-0.5,1.6-0.6C32.4,74.1,35.5,74,38.5,74 M26.3,80.2h0.5h11.4h0.3v-0.3v-4.7V75l-0.2,0l-0.2,0c-0.5,0-0.9,0-1.3,0
				c-3.7,0-6.3,0.3-6.4,0.3l-0.1,0l-0.1,0l-0.1,0.1l-3.5,4.3L26.3,80.2 M40.4,80.2h0.3h11.4h0.5l-0.3-0.4l-3.4-4.2l-0.1-0.1l-0.1,0
				l-0.1,0c0,0-5.1-0.4-7.8-0.5l-0.2,0l-0.3,0v0.3v4.7V80.2 M59.9,91.2c1.1,0,2.1-0.9,2.1-2.1c0-1.1-0.9-2.1-2.1-2.1
				c-1.1,0-2.1,0.9-2.1,2.1C57.9,90.2,58.8,91.2,59.9,91.2 M28.5,91.2c1.1,0,2.1-0.9,2.1-2.1c0-1.1-0.9-2.1-2.1-2.1
				c-1.1,0-2.1,0.9-2.1,2.1c0,0.6,0.2,1.1,0.6,1.5C27.4,91,28,91.2,28.5,91.2 M38.5,73.7c-3.1,0-6.1,0.1-8.8,0.3
				c-1.2,0.1-1.8,0.7-1.8,0.7l-5.4,6l-1.1,3.6l0,5h0.7v1.2h2.3l0,0.1c0.6,1.7,2.2,2.8,4,2.8c2.2,0,4.1-1.7,4.2-3.9l0-0.2l22.9,0
				l0,0.2c0.2,2.2,2.1,3.9,4.2,3.9c1.8,0,3.4-1.1,4-2.8l0-0.1h3.9v-1.2h0.8l0.6-3.2l-0.9-0.8l-1-2.8l-11-2.8c0,0-4.7-4.3-6.2-5
				C49.2,74.1,44.2,73.7,38.5,73.7L38.5,73.7z M26.8,79.9l3.5-4.3l0.1,0c0,0,2.7-0.3,6.3-0.3c0.4,0,0.9,0,1.3,0l0.2,0v4.7H26.8
				L26.8,79.9z M40.7,79.9v-4.7l0.2,0c2.8,0,7.8,0.5,7.8,0.5l0.1,0l3.4,4.2H40.7L40.7,79.9z M59.9,90.9c-1,0-1.8-0.8-1.8-1.8
				c0-1,0.8-1.8,1.8-1.8c1,0,1.8,0.8,1.8,1.8C61.7,90.1,60.9,90.9,59.9,90.9L59.9,90.9z M28.5,90.9c-0.5,0-0.9-0.2-1.3-0.5
				c-0.3-0.3-0.5-0.8-0.5-1.3c0-1,0.8-1.8,1.8-1.8c1,0,1.8,0.8,1.8,1.8C30.3,90.1,29.5,90.9,28.5,90.9L28.5,90.9z"/>
		</g>
	</g>
</g>
</svg>
