<?xml version="1.0" encoding="utf-8"?>
<!-- Generator: Adobe Illustrator 18.1.1, SVG Export Plug-In . SVG Version: 6.00 Build 0)  -->
<svg version="1.1" id="Слой_1" xmlns="http://www.w3.org/2000/svg" xmlns:xlink="http://www.w3.org/1999/xlink" x="0px" y="0px"
	 viewBox="0 0 140 140" enable-background="new 0 0 140 140" xml:space="preserve">
<g>
	<linearGradient id="SVGID_1_" gradientUnits="userSpaceOnUse" x1="0.4965" y1="139.5034" x2="129.3249" y2="10.675">
		<stop  offset="0" style="stop-color:#CFCFCF"/>
		<stop  offset="0.5035" style="stop-color:#FFFFFF"/>
		<stop  offset="1" style="stop-color:#CFCFCF"/>
	</linearGradient>
	<path fill-rule="evenodd" clip-rule="evenodd" fill="url(#SVGID_1_)" d="M0.5,0.5h104.3c19.2,0,34.8,15.6,34.8,34.8v104.3H0.5V0.5z
		"/>
	<path fill="#878787" d="M140,140H0V0h104.8C124.2,0,140,15.8,140,35.2V140z M1,139h138V35.2C139,16.4,123.6,1,104.8,1H1V139z"/>
</g>
<g>
	<g>
		<path fill="#C3C3C3" d="M51.9,85.9c-0.2,0-0.4-0.1-0.4-0.3l-4.1-12.6c0.1-0.1,0.1-0.1,0.2-0.2l2.5-2.3l3.2,1
			c0.4,0.1,0.8,0.2,1.2,0.2c1.1,0,2.1-0.4,2.8-1.1l3.9,11.9c0,0.1,0,0.3-0.1,0.4c-0.1,0.1-0.2,0.2-0.4,0.2c0,0-0.1,0-0.1,0L56,81.6
			c-0.1,0-0.1,0-0.2,0c-0.2,0-0.4,0.1-0.6,0.3l-3,3.8C52.2,85.8,52,85.9,51.9,85.9z M37.6,85.9c-0.1,0-0.3-0.1-0.4-0.2l-3-3.8
			c-0.1-0.2-0.3-0.3-0.6-0.3c-0.1,0-0.1,0-0.2,0L28.8,83c0,0-0.1,0-0.1,0c-0.1,0-0.3-0.1-0.4-0.2c-0.1-0.1-0.1-0.3-0.1-0.4l3.9-11.9
			c0.8,0.7,1.8,1.1,2.8,1.1c0.4,0,0.8-0.1,1.2-0.2l3.2-1c0,0,2.7,2.4,2.7,2.5L38,85.6C37.9,85.7,37.8,85.9,37.6,85.9z M44.6,70.8
			c-0.2,0-0.4-0.1-0.5-0.2l-3.4-3.9c-0.2-0.2-0.4-0.3-0.7-0.3c-0.1,0-0.2,0-0.4,0.1l-4.8,2c-0.1,0-0.2,0-0.3,0
			c-0.3,0-0.6-0.2-0.6-0.5l-1.4-5c-0.1-0.4-0.4-0.6-0.8-0.7L26.6,62c-0.2,0-0.4-0.1-0.5-0.2c-0.1-0.1-0.2-0.3-0.1-0.5l0.9-5.1
			c0.1-0.4-0.1-0.8-0.4-1l-4.5-2.5c-0.2-0.1-0.3-0.2-0.3-0.4c0-0.2,0-0.4,0.1-0.5l3.1-4.2c0.2-0.3,0.2-0.8,0-1.1l-3-4.2
			c-0.1-0.2-0.1-0.3-0.1-0.5c0-0.2,0.2-0.3,0.3-0.4l4.6-2.4c0.3-0.2,0.5-0.6,0.5-1l-0.9-5.1c0-0.2,0-0.4,0.1-0.5
			c0.1-0.1,0.3-0.2,0.5-0.2l5.2-0.2c0.4,0,0.7-0.3,0.8-0.7l1.4-5c0.1-0.3,0.3-0.5,0.6-0.5c0.1,0,0.2,0,0.3,0.1l4.8,2.1
			c0.1,0,0.2,0.1,0.4,0.1c0.3,0,0.5-0.1,0.7-0.3l3.5-3.9c0.1-0.1,0.3-0.2,0.5-0.2c0.2,0,0.4,0.1,0.5,0.2l3.4,3.9
			c0.2,0.2,0.4,0.3,0.7,0.3c0.1,0,0.2,0,0.4-0.1l4.8-2c0.1,0,0.2,0,0.3,0c0.3,0,0.6,0.2,0.6,0.5l1.4,5c0.1,0.4,0.4,0.6,0.8,0.7
			l5.2,0.3c0.2,0,0.4,0.1,0.5,0.2c0.1,0.1,0.2,0.3,0.1,0.5l-0.9,5.1c-0.1,0.4,0.1,0.8,0.4,1l4.5,2.5c0.2,0.1,0.3,0.3,0.3,0.4
			c0,0.2,0,0.4-0.1,0.5l-3.1,4.2c-0.2,0.3-0.2,0.8,0,1.1l3,4.2c0.1,0.2,0.1,0.3,0.1,0.5c0,0.2-0.2,0.3-0.3,0.4l-4.6,2.4
			c-0.3,0.2-0.5,0.6-0.5,1l0.9,5.1c0,0.2,0,0.4-0.1,0.5c-0.1,0.1-0.3,0.2-0.5,0.2l-5.2,0.2c-0.4,0-0.7,0.3-0.8,0.7l-1.5,5
			c-0.1,0.3-0.3,0.5-0.6,0.5c-0.1,0-0.2,0-0.3-0.1l-4.8-2.1c-0.1,0-0.2-0.1-0.4-0.1c-0.3,0-0.5,0.1-0.7,0.3l-3.5,3.9
			C44.9,70.7,44.8,70.8,44.6,70.8z M44.7,32.9c-7.8,0-14.2,6.4-14.2,14.2c0,7.8,6.4,14.2,14.2,14.2S59,54.9,59,47.1
			C59,39.3,52.6,32.9,44.7,32.9z M49.8,55.4c-0.2,0-0.4-0.1-0.5-0.2l-4.6-2.8l-4.6,2.8c-0.2,0.1-0.3,0.2-0.5,0.2
			c-0.3,0-0.6-0.1-0.8-0.4c-0.2-0.2-0.3-0.5-0.2-0.8L40,49l-4.1-3.5c-0.3-0.3-0.4-0.7-0.3-1.1c0.1-0.4,0.5-0.7,0.9-0.7l5.4-0.4l2-5
			c0.2-0.5,0.6-0.6,0.9-0.6c0.3,0,0.7,0.2,0.9,0.6l2,5l5.4,0.4c0.4,0,0.7,0.3,0.9,0.7c0.1,0.4,0,0.8-0.3,1.1L49.5,49l1.3,5.2
			c0.1,0.3,0,0.6-0.2,0.8C50.4,55.3,50.1,55.4,49.8,55.4z"/>
	</g>
	<g>
		<path fill="#A8A8A7" d="M44.9,23.6c0.2,0,0.3,0.1,0.4,0.2l3.4,3.9c0.2,0.2,0.5,0.4,0.8,0.4c0.1,0,0.3,0,0.4-0.1l4.8-2
			c0.1,0,0.1,0,0.2,0c0.2,0,0.4,0.2,0.5,0.4l1.4,5c0.1,0.4,0.5,0.7,0.9,0.8l5.2,0.3c0.2,0,0.3,0.1,0.4,0.2c0.1,0.1,0.1,0.3,0.1,0.4
			l-0.9,5.1c-0.1,0.4,0.1,0.9,0.5,1.1l4.5,2.5c0.1,0.1,0.2,0.2,0.3,0.4c0,0.1,0,0.3-0.1,0.4l-3.1,4.2c-0.3,0.4-0.3,0.9,0,1.2l3,4.2
			c0.1,0.1,0.1,0.3,0.1,0.4c0,0.1-0.1,0.3-0.3,0.3l-4.6,2.4c-0.4,0.2-0.6,0.7-0.5,1.1l0.9,5.1c0,0.2,0,0.3-0.1,0.4
			c-0.1,0.1-0.2,0.2-0.4,0.2l-5.2,0.2c-0.4,0-0.8,0.3-0.9,0.7l-1.5,5c-0.1,0.2-0.3,0.4-0.5,0.4c-0.1,0-0.1,0-0.2,0l-4.8-2.1
			c-0.1-0.1-0.3-0.1-0.4-0.1c-0.3,0-0.6,0.1-0.8,0.3L45,70.5c-0.1,0.1-0.2,0.2-0.4,0.2c-0.2,0-0.3-0.1-0.4-0.2l-3.4-3.9
			c-0.2-0.2-0.5-0.4-0.8-0.4c-0.1,0-0.3,0-0.4,0.1l-4.8,2c-0.1,0-0.1,0-0.2,0c-0.2,0-0.4-0.2-0.5-0.4l-1.4-5
			c-0.1-0.4-0.5-0.7-0.9-0.8l-5.2-0.3c-0.2,0-0.3-0.1-0.4-0.2c-0.1-0.1-0.1-0.3-0.1-0.4l0.9-5.1c0.1-0.4-0.1-0.9-0.5-1.1l-4.6-2.5
			c-0.1-0.1-0.2-0.2-0.2-0.3c0-0.2,0-0.3,0.1-0.4l3.1-4.2c0.3-0.4,0.3-0.9,0-1.2l-3-4.2c-0.1-0.1-0.1-0.3-0.1-0.4
			c0-0.1,0.1-0.3,0.3-0.3l4.6-2.4c0.4-0.2,0.6-0.7,0.5-1.1l-0.9-5.1c0-0.2,0-0.3,0.1-0.4c0.1-0.1,0.2-0.2,0.4-0.2l5.2-0.2
			c0.4,0,0.8-0.3,0.9-0.7l1.4-5c0.1-0.2,0.3-0.4,0.5-0.4c0.1,0,0.1,0,0.2,0l4.8,2.1c0.1,0.1,0.3,0.1,0.4,0.1c0.3,0,0.6-0.1,0.8-0.3
			l3.5-3.9C44.6,23.6,44.8,23.6,44.9,23.6 M44.7,61.4c7.9,0,14.3-6.4,14.3-14.3c0-7.9-6.4-14.3-14.3-14.3c-7.9,0-14.3,6.4-14.3,14.3
			C30.4,55,36.8,61.4,44.7,61.4 M44.7,37.9c0.3,0,0.6,0.1,0.8,0.5l2,4.9l0.1,0.1l0.2,0l5.3,0.4c0.4,0,0.7,0.3,0.8,0.6
			c0.1,0.3,0.1,0.6-0.3,0.9l-4.1,3.4l-0.1,0.1l0,0.2l1.3,5.2c0.1,0.3,0,0.5-0.2,0.7c-0.2,0.2-0.4,0.3-0.7,0.3c-0.2,0-0.3,0-0.5-0.1
			l-4.5-2.8l-0.1-0.1l-0.1,0.1l-4.5,2.8c-0.1,0.1-0.3,0.1-0.5,0.1c-0.3,0-0.5-0.1-0.7-0.3c-0.2-0.2-0.2-0.5-0.2-0.7l1.3-5.2l0-0.2
			L40,48.8l-4.1-3.4c-0.3-0.3-0.4-0.7-0.3-0.9c0.1-0.3,0.3-0.6,0.8-0.6l5.3-0.4l0.2,0l0.1-0.1l2-4.9C44.1,38,44.4,37.9,44.7,37.9
			 M39.4,70.6l2.5,2.2l0.1,0.1c0,0,0,0,0.1,0l-4.1,12.6c-0.1,0.2-0.2,0.2-0.3,0.2c-0.1,0-0.2,0-0.3-0.1l-3-3.8
			c-0.2-0.2-0.4-0.3-0.7-0.3c-0.1,0-0.2,0-0.2,0l-4.7,1.4c0,0-0.1,0-0.1,0c-0.1,0-0.2-0.1-0.3-0.1c0,0-0.1-0.2,0-0.3l3.8-11.7
			c0.8,0.6,1.8,1,2.8,1c0.4,0,0.8-0.1,1.2-0.2L39.4,70.6 M50.1,70.6l3.2,1c0.4,0.1,0.8,0.2,1.2,0.2c1,0,2-0.4,2.8-1l3.8,11.7
			c0,0.1,0,0.2,0,0.3c-0.1,0.1-0.2,0.1-0.3,0.1c0,0-0.1,0-0.1,0L56,81.5c-0.1,0-0.2,0-0.2,0c-0.3,0-0.5,0.1-0.7,0.3l-3,3.8
			c-0.1,0.1-0.2,0.1-0.3,0.1c-0.1,0-0.3-0.1-0.3-0.2L47.5,73c0,0,0.1-0.1,0.1-0.1L50.1,70.6 M44.9,23.3c-0.2,0-0.4,0.1-0.6,0.3
			l-3.5,3.9c-0.2,0.2-0.4,0.3-0.6,0.3c-0.1,0-0.2,0-0.3-0.1l-4.8-2.1c-0.1,0-0.2-0.1-0.3-0.1c-0.3,0-0.7,0.2-0.8,0.6l-1.4,5
			c-0.1,0.3-0.4,0.6-0.7,0.6l-5.2,0.2c-0.5,0-0.8,0.4-0.7,0.9l0.9,5.1c0.1,0.3-0.1,0.7-0.4,0.8l-4.6,2.4c-0.4,0.2-0.5,0.8-0.3,1.1
			l3,4.2c0.2,0.3,0.2,0.6,0,0.9l-3.1,4.2c-0.3,0.4-0.2,0.9,0.2,1.1l4.5,2.5c0.3,0.2,0.5,0.5,0.4,0.8l-0.9,5.1
			c-0.1,0.5,0.3,0.9,0.7,0.9l5.2,0.3c0.3,0,0.6,0.3,0.7,0.6l1.4,5c0.1,0.3,0.4,0.6,0.8,0.6c0.1,0,0.2,0,0.3-0.1l4.8-2
			c0.1,0,0.2-0.1,0.3-0.1c0.2,0,0.4,0.1,0.6,0.3l3.4,3.9c0.2,0.2,0.4,0.3,0.6,0.3c0.2,0,0.4-0.1,0.6-0.3l3.5-3.9
			c0.2-0.2,0.4-0.3,0.6-0.3c0.1,0,0.2,0,0.3,0.1l4.8,2.1c0.1,0,0.2,0.1,0.3,0.1c0.3,0,0.7-0.2,0.8-0.6l1.5-5
			c0.1-0.3,0.4-0.6,0.7-0.6l5.2-0.2c0.5,0,0.8-0.4,0.7-0.9l-0.9-5.1c-0.1-0.3,0.1-0.7,0.4-0.8l4.6-2.4c0.4-0.2,0.5-0.8,0.3-1.1
			l-3-4.2c-0.2-0.3-0.2-0.6,0-0.9l3.1-4.2c0.3-0.4,0.2-0.9-0.3-1.1L63.1,39c-0.3-0.2-0.5-0.5-0.4-0.8l0.9-5.1
			c0.1-0.5-0.3-0.9-0.7-0.9l-5.2-0.3c-0.3,0-0.6-0.3-0.7-0.6l-1.4-5c-0.1-0.3-0.4-0.6-0.8-0.6c-0.1,0-0.2,0-0.3,0.1l-4.8,2
			c-0.1,0-0.2,0.1-0.3,0.1c-0.2,0-0.4-0.1-0.6-0.3l-3.4-3.9C45.4,23.4,45.1,23.3,44.9,23.3L44.9,23.3z M44.7,61.2
			c-7.8,0-14.1-6.3-14.1-14.1C30.6,39.4,37,33,44.7,33c7.8,0,14.1,6.3,14.1,14.1C58.8,54.9,52.5,61.2,44.7,61.2L44.7,61.2z
			 M44.7,37.6c-0.4,0-0.8,0.2-1,0.7l-2,4.9l-5.3,0.4c-1,0.1-1.4,1.3-0.6,2l4.1,3.4l-1.3,5.2c-0.2,0.8,0.4,1.4,1.1,1.4
			c0.2,0,0.4-0.1,0.6-0.2l4.5-2.8l4.5,2.8c0.2,0.1,0.4,0.2,0.6,0.2c0.7,0,1.3-0.6,1.1-1.4L49.7,49l4.1-3.4c0.8-0.6,0.4-1.9-0.6-2
			l-5.3-0.4l-2-4.9C45.6,37.9,45.2,37.6,44.7,37.6L44.7,37.6z M57.4,70.3c-0.8,0.8-1.8,1.2-2.9,1.2c-0.4,0-0.8-0.1-1.2-0.2l-3.3-1
			l-2.6,2.3c-0.1,0.1-0.2,0.2-0.3,0.2l4.1,12.7c0.1,0.3,0.3,0.4,0.6,0.4c0.2,0,0.3-0.1,0.5-0.2l3-3.8c0.1-0.1,0.3-0.2,0.5-0.2
			c0.1,0,0.1,0,0.2,0l4.7,1.4c0.1,0,0.1,0,0.2,0c0.4,0,0.7-0.4,0.6-0.8L57.4,70.3L57.4,70.3z M32,70.3l-3.9,12.1
			c-0.1,0.4,0.2,0.8,0.6,0.8c0.1,0,0.1,0,0.2,0l4.7-1.4c0.1,0,0.1,0,0.2,0c0.2,0,0.4,0.1,0.5,0.2l3,3.8c0.1,0.2,0.3,0.2,0.5,0.2
			c0.2,0,0.5-0.1,0.6-0.4l4.1-12.7c-0.1-0.1-0.2-0.1-0.3-0.2l-2.6-2.3l-3.3,1c-0.4,0.1-0.8,0.2-1.2,0.2C33.8,71.5,32.8,71,32,70.3
			L32,70.3z"/>
	</g>
</g>
</svg>
