<svg xmlns="http://www.w3.org/2000/svg" width="35.751" height="35.751" viewBox="0 0 35.751 35.751"><path fill="none" d="M11.751 11.225l.21-.212c.322-.321.479-.609.479-.88s-.157-.558-.479-.88L9.235 6.516a36.03 36.03 0 0 0-1.318-1.309c-.217-.217-.509-.438-.847-.438-.271 0-.571.146-.868.424l-2.513 2.51a3.032 3.032 0 0 0-.913 1.961c-.107 1.307.142 2.683.807 4.461 1.101 2.971 2.773 5.75 5.264 8.75 3.019 3.598 6.65 6.438 10.793 8.441 1.499.715 3.495 1.555 5.632 1.691.106.008.211.006.315.008 1.051 0 1.825-.326 2.509-1.057.474-.558.996-1.068 1.443-1.492l.166-.162c.212-.206.415-.403.614-.611v-.229l.213-.002c.511-.593.475-1.099-.104-1.671L26.35 23.72c-.169-.183-.462-.444-.814-.444-.356 0-.687.277-.852.443l-2.531 2.527c-.661.656-1.472.8-2.288.396l-.096-.056a8.635 8.635 0 0 0-.675-.363 10.777 10.777 0 0 1-.995-.539c-2.406-1.519-4.585-3.497-6.659-6.048-1.168-1.48-1.921-2.708-2.452-3.996l-.031-.089c-.162-.512-.287-1.264.427-2.013l.009-.02.088-.078a38.561 38.561 0 0 0 1.841-1.788c.151-.145.289-.285.429-.427z"/><path fill="#205A9C" d="M28.321 21.797c-1.581-1.642-3.922-1.652-5.565-.013l-2.143 2.133-.116-.061-.27-.138c-.235-.118-.458-.229-.646-.345-2.156-1.368-4.118-3.155-5.996-5.458-.829-1.045-1.403-1.928-1.835-2.826a46.79 46.79 0 0 0 1.36-1.34l.787-.796c.834-.833 1.275-1.808 1.275-2.821s-.441-1.988-1.275-2.821l-2.02-2.018c-.227-.226-.46-.46-.683-.697-.45-.464-.92-.941-1.397-1.38-1.58-1.56-3.869-1.579-5.537.019L1.746 5.769A5.771 5.771 0 0 0 .032 9.438c-.183 2.227.465 4.287.968 5.644 1.221 3.284 3.039 6.314 5.724 9.537 3.278 3.908 7.22 6.99 11.72 9.161 1.743.824 4.073 1.792 6.651 1.956.161.008.331.016.485.016 1.819 0 3.348-.656 4.587-2.005.339-.41.731-.79 1.147-1.192l.116-.112c.322-.307.651-.628.974-.965.799-.831 1.222-1.805 1.222-2.816 0-1.022-.433-1.991-1.249-2.798l-4.056-4.067zM9.482 13.439l-.088.078-.009.02c-.714.749-.589 1.501-.427 2.013l.031.089c.531 1.287 1.284 2.516 2.452 3.996 2.074 2.551 4.253 4.529 6.659 6.048.306.194.617.351.995.539.235.118.459.23.675.363l.096.056c.816.404 1.627.261 2.288-.396l2.531-2.527c.165-.166.495-.443.852-.443.353 0 .646.262.814.444l4.078 4.071c.578.572.614 1.078.104 1.671l-.213.002v.229c-.199.208-.402.405-.614.611l-.166.162c-.447.424-.97.935-1.443 1.492-.684.73-1.458 1.057-2.509 1.057-.104-.002-.209 0-.315-.008-2.137-.137-4.133-.977-5.632-1.691-4.143-2.003-7.774-4.844-10.793-8.441-2.49-2.999-4.163-5.778-5.264-8.75-.665-1.778-.914-3.154-.807-4.461a3.027 3.027 0 0 1 .913-1.961l2.514-2.511c.295-.276.595-.422.866-.422.337 0 .629.222.847.438.447.417.872.849 1.318 1.309l2.727 2.737c.322.322.479.609.479.88s-.157.559-.479.88l-.21.212c-.14.142-.279.282-.429.427a39.046 39.046 0 0 1-1.841 1.787zm14.65-1.829a9.061 9.061 0 0 1 2.543 4.895 1.366 1.366 0 0 0 1.584 1.121 1.38 1.38 0 0 0 1.131-1.586 11.763 11.763 0 0 0-3.309-6.371 11.79 11.79 0 0 0-6.383-3.303 1.386 1.386 0 0 0-1.583 1.117c-.065.366.018.734.231 1.037.211.297.525.494.883.552a9.015 9.015 0 0 1 4.903 2.538z"/><path fill="#205A9C" d="M30.351 5.392A19.168 19.168 0 0 0 19.979.02a1.375 1.375 0 0 0-1.582 1.122 1.372 1.372 0 0 0 1.129 1.582c3.364.569 6.438 2.16 8.89 4.601 2.442 2.44 4.035 5.509 4.607 8.876a1.366 1.366 0 0 0 1.579 1.121 1.34 1.34 0 0 0 .896-.548c.216-.3.298-.665.233-1.022a19.123 19.123 0 0 0-5.38-10.36z"/></svg>