<svg xmlns="http://www.w3.org/2000/svg" width="26" height="26" viewBox="0 0 26 26"><g fill="#29337E"><path d="M24.499 21.274l-5.582-5.584a10.77 10.77 0 0 1-3.227 3.227l5.584 5.583a2.28 2.28 0 1 0 3.225-3.226zM19.083 9.958a9.126 9.126 0 0 0-18.25 0 9.126 9.126 0 0 0 9.126 9.127c5.038 0 9.124-4.088 9.124-9.127zm-9.124 6.418a6.424 6.424 0 0 1-6.417-6.418 6.422 6.422 0 0 1 6.417-6.414 6.422 6.422 0 0 1 6.415 6.414c0 3.539-2.879 6.418-6.415 6.418z"/><path d="M5.303 10.626h1.521a3.806 3.806 0 0 1 3.803-3.803v-1.52a5.327 5.327 0 0 0-5.324 5.323z"/></g></svg>