<svg xmlns="http://www.w3.org/2000/svg" width="36" height="36" viewBox="0 0 36 36"><path fill="#205A9C" d="M13.636 9.337h20.352c1.11 0 2.012-.902 2.012-2.012s-.902-2.012-2.012-2.012H13.636c-1.109 0-2.011.902-2.011 2.012s.902 2.012 2.011 2.012zm20.352 6.651H13.636c-1.109 0-2.011.902-2.011 2.012s.902 2.012 2.011 2.012h20.352c1.11 0 2.012-.903 2.012-2.012s-.902-2.012-2.012-2.012zm0 10.675H13.636c-1.109 0-2.011.902-2.011 2.012s.902 2.012 2.011 2.012h20.352c1.109 0 2.012-.902 2.012-2.012s-.902-2.012-2.012-2.012zM2.011 9.337h3.042c1.109 0 2.012-.902 2.012-2.012s-.903-2.012-2.012-2.012H2.011C.902 5.313 0 6.216 0 7.325s.902 2.012 2.011 2.012zm3.042 6.651H2.011C.902 15.988 0 16.891 0 18s.902 2.012 2.011 2.012h3.042c1.109 0 2.012-.902 2.012-2.012s-.903-2.012-2.012-2.012zm0 10.675H2.011C.902 26.663 0 27.565 0 28.675s.902 2.012 2.011 2.012h3.042c1.109 0 2.012-.902 2.012-2.012s-.903-2.012-2.012-2.012z"/></svg>