<svg xmlns="http://www.w3.org/2000/svg" width="26" height="26" viewBox="0 0 26 26"><path d="M1.493 6.172h23.012c.826 0 1.495-.711 1.495-1.587 0-.873-.669-1.584-1.495-1.584H1.493C.671 3.001 0 3.712 0 4.585c0 .876.671 1.587 1.493 1.587zm23.012 5.241H1.493C.671 11.413 0 12.125 0 13s.671 1.587 1.493 1.587h23.012c.826 0 1.495-.712 1.495-1.587s-.669-1.587-1.495-1.587zm0 8.415H1.493c-.822 0-1.493.71-1.493 1.587 0 .874.671 1.584 1.493 1.584h23.012c.826 0 1.495-.71 1.495-1.584 0-.877-.669-1.587-1.495-1.587z" fill="#29337E"/></svg>