<svg xmlns="http://www.w3.org/2000/svg" width="65" height="65" viewBox="0 0 65 65"><path d="M46.227 31.548c.092-.796.215-1.585.329-2.379l.126-.843a99.85 99.85 0 0 1 .363-2.378c.01-.098.044-.194.074-.287.036-.123.072-.241.1-.361.033-.168.061-.343.088-.511.032-.203.064-.406.108-.609.067-.295.154-.591.232-.887.066-.238.133-.482.195-.724.068-.27.13-.539.193-.808.074-.344.148-.684.242-1.024.161-.6.328-1.195.494-1.793l.407-1.48c.094-.316.185-.636.228-.964.058-.417.088-.875.093-1.435.007-1.167-.692-1.428-1.416-1.594-.085-.025-.793-.227-1.734-.501-2.16-.623-5.424-1.568-6.033-1.7-.113-.023-.473-.102-5.427-.102-.09 0-8.456.011-8.804.11-1.081.304-8.073 1.945-9.159 2.189-.825.19-1.361.764-1.398 1.502-.058.934-.058 1.942.288 2.946.309.922.605 1.922.934 3.155.438 1.673.896 3.401 1.273 5.139.199.901.336 1.846.469 2.758l.128.865c.136.9.266 1.808.363 2.711l.01.115c.095.844.191 1.718.215 2.567.043 1.869.037 3.713.03 5.096-.013.619-.046 1.229-.068 1.848-.022.371-.044.742-.054 1.124-.057 1.468-.156 3.202-.47 4.919-.07.376-.127.764-.181 1.144-.06.452-.122.897-.216 1.347-.199.938-.429 1.874-.658 2.813l-.192.783c-.109.466-.235.93-.351 1.394l-.343 1.264c-.18.691-.369 1.381-.543 2.063a4.76 4.76 0 0 0-.133.931c-.011.681.098 1.284.34 1.852l.048.1c.052.166.149.428.417.595.564.808 3.317 2.501 16.406 2.501 12.876 0 15.119-2.302 15.265-2.498.989-.83 1.038-2.29.768-3.371-.203-.814-.433-1.616-.663-2.419l-.397-1.422c-.162-.594-.301-1.192-.465-1.872l-.203-.843a51.33 51.33 0 0 1-.529-2.301c-.197-1.001-.337-2.024-.475-3.073-.09-.64-.151-1.281-.217-1.934l-.05-.594c-.029-.27-.052-.541-.065-.813l-.067-.902a178.38 178.38 0 0 1-.152-2.142c-.029-.399-.108-1.742-.104-2.251.021-1.469.086-2.97.14-4.266.046-.819.096-1.785.201-2.75zm-1.247 9.338c.041.718.099 1.429.146 2.147l.065.898c.023.279.048.566.068.844l.06.59c.064.66.128 1.321.209 1.977.149 1.054.29 2.097.493 3.127.157.782.351 1.569.535 2.351l.226.913c.143.606.291 1.22.457 1.822.131.474.265.952.4 1.429.228.796.445 1.593.653 2.394.07.27.373 1.664-.492 2.401-.026.025-2.211 2.213-14.561 2.213-14.1 0-15.524-2.003-15.553-2.023a.408.408 0 0 0-.273-.299c-.019-.016-.034-.073-.057-.123l-.055-.143a3.247 3.247 0 0 1-.255-1.424c.004-.228.039-.47.101-.705.174-.689.36-1.366.537-2.053l.336-1.266c.127-.47.255-.938.363-1.418l.194-.778c.23-.952.462-1.893.662-2.85.098-.466.164-.936.23-1.405.047-.369.102-.744.17-1.109.329-1.774.432-3.559.484-5.064.016-.368.029-.738.052-1.114.031-.619.063-1.247.068-1.876.008-1.399.021-3.25-.029-5.138-.016-.89-.115-1.785-.212-2.649l-.02-.115a66.45 66.45 0 0 0-.366-2.754l-.129-.86c-.133-.93-.271-1.892-.477-2.828-.39-1.758-.848-3.499-1.291-5.18a46.753 46.753 0 0 0-.955-3.22c-.269-.797-.283-1.604-.232-2.569.019-.271.248-.484.617-.569.836-.191 8.075-1.884 9.142-2.19.334-.035 4.733-.084 8.595-.084 4.549 0 5.146.067 5.215.081.568.123 3.949 1.099 5.968 1.681.98.285 1.707.496 1.779.513.632.149.632.206.63.598-.004.517-.032.933-.077 1.311-.036.28-.122.552-.194.828l-.408 1.479c-.172.6-.345 1.199-.498 1.803-.094.353-.182.705-.257 1.057-.063.264-.125.528-.19.792-.052.233-.116.467-.182.7-.089.305-.169.614-.249.923-.047.226-.084.458-.118.688-.026.154-.053.313-.084.465-.012.084-.042.169-.068.252a3.827 3.827 0 0 0-.109.434 92.894 92.894 0 0 0-.365 2.395l-.126.838c-.115.802-.238 1.608-.332 2.415a48.147 48.147 0 0 0-.205 2.815 114.59 114.59 0 0 0-.143 4.306c-.011.522.074 1.795.107 2.326zM37.552 7.831l-10.528.603a.5.5 0 0 0-.474.533.5.5 0 0 0 .503.477h.03l10.528-.602a.505.505 0 0 0 .473-.535c-.01-.277-.214-.49-.532-.476zm-.014-2.316l-10.528.602a.51.51 0 0 0-.482.534c.02.269.237.477.504.477l.029-.001 10.529-.601a.51.51 0 0 0 .482-.534.491.491 0 0 0-.534-.477zm-10.521-.702c.008 0 .015-.002.031-.002l10.527-.602a.504.504 0 0 0 .474-.534c-.012-.279-.209-.487-.534-.477L26.987 3.8a.502.502 0 0 0-.474.533c.011.269.237.48.504.48zm0-2.317l.031-.003 10.527-.601a.504.504 0 0 0 .474-.533c-.012-.28-.209-.487-.534-.479l-10.528.603a.5.5 0 0 0-.474.534.502.502 0 0 0 .504.479z"/><path d="M42.953 32.305l.011-.147c.099-.908.228-1.81.362-2.715l.127-.841c.133-.921.271-1.87.47-2.782.365-1.666.807-3.353 1.237-4.981l.038-.154c.326-1.235.625-2.238.937-3.155a.51.51 0 0 0-.316-.645.506.506 0 0 0-.641.319 47.09 47.09 0 0 0-.955 3.22l-.039.16c-.432 1.637-.882 3.333-1.252 5.02-.205.947-.344 1.914-.479 2.853l-.125.835a65.723 65.723 0 0 0-.368 2.755l-.02.146c-.097.853-.194 1.74-.209 2.62a173.493 173.493 0 0 0-.029 5.136c.003.639.036 1.285.068 1.924.022.358.036.708.055 1.067.048 1.502.148 3.285.48 5.072.067.365.124.735.171 1.103.064.47.133.938.229 1.403.198.957.431 1.904.663 2.851l.193.787c.109.464.233.924.356 1.38l.335 1.258c.18.696.37 1.391.544 2.09a.515.515 0 0 0 .493.387c.037 0 .088-.014.127-.021a.503.503 0 0 0 .365-.613c-.175-.7-.365-1.404-.555-2.104l-.332-1.247c-.115-.457-.239-.916-.347-1.37l-.193-.784c-.229-.935-.461-1.878-.657-2.816-.096-.44-.147-.893-.213-1.338a34.15 34.15 0 0 0-.185-1.153c-.314-1.722-.412-3.452-.469-4.919-.01-.362-.032-.725-.045-1.087a39.11 39.11 0 0 1-.068-1.873c-.021-2.061-.015-3.64.021-5.107.026-.84.12-1.702.215-2.534z"/></svg>