<svg xmlns="http://www.w3.org/2000/svg" width="50" height="50" viewBox="0 0 50 50"><g fill="#FFF"><path d="M34.692 24.017c.063-.562.148-1.12.23-1.68l.088-.595a83.2 83.2 0 0 1 .257-1.679c.008-.069.032-.137.053-.204.026-.085.053-.169.07-.254.023-.119.042-.241.062-.36a6.35 6.35 0 0 1 .077-.43c.048-.208.107-.417.164-.625.047-.169.094-.34.138-.512.048-.19.091-.38.136-.57.053-.242.107-.483.172-.723.113-.423.231-.844.349-1.266l.289-1.045a4.84 4.84 0 0 0 .159-.681c.04-.295.061-.618.064-1.014.006-.823-.488-1.008-.997-1.125-.063-.017-.56-.16-1.227-.353-1.524-.44-3.829-1.107-4.258-1.2-.081-.017-.334-.072-3.832-.072-.063 0-5.968.007-6.215.077-.762.215-5.699 1.374-6.465 1.546-.582.134-.961.54-.987 1.061-.04.66-.04 1.371.201 2.08.22.651.429 1.357.659 2.228.311 1.181.634 2.401.901 3.628.141.637.237 1.303.331 1.947l.09.611c.096.636.188 1.276.256 1.914l.008.082c.066.596.135 1.213.15 1.812.031 1.32.026 2.62.02 3.599-.006.436-.029.867-.048 1.303-.014.263-.028.525-.036.793-.039 1.037-.109 2.262-.332 3.473-.05.268-.089.539-.127.81-.044.317-.088.634-.152.948-.141.664-.303 1.325-.464 1.986l-.136.554c-.078.329-.166.656-.25.983l-.24.893c-.127.486-.26.973-.383 1.457a3.1 3.1 0 0 0 .146 1.963l.031.07c.039.117.108.301.297.42.398.571 2.342 1.767 11.582 1.767 9.088 0 10.672-1.626 10.774-1.765.697-.586.734-1.615.542-2.38-.144-.575-.306-1.142-.468-1.709l-.28-1.003c-.114-.419-.213-.842-.328-1.321l-.145-.594a37.055 37.055 0 0 1-.373-1.626 35.418 35.418 0 0 1-.336-2.167c-.063-.453-.105-.907-.151-1.366l-.037-.418a11.079 11.079 0 0 1-.046-.576l-.048-.638a117.95 117.95 0 0 1-.106-1.51 31.782 31.782 0 0 1-.074-1.589c.015-1.037.06-2.098.1-3.012.033-.58.069-1.262.145-1.943zm-.882 6.592c.029.506.069 1.009.104 1.515l.046.635.049.598.041.415c.046.466.09.932.15 1.394.103.747.202 1.48.346 2.208.11.555.246 1.108.379 1.66l.158.645c.103.43.205.86.322 1.286.092.336.187.673.282 1.009.16.562.317 1.124.462 1.689.049.191.263 1.177-.349 1.697-.018.017-1.56 1.56-10.276 1.56-9.955 0-10.961-1.413-10.98-1.427a.287.287 0 0 0-.193-.211c-.012-.012-.024-.054-.039-.086l-.039-.102a2.308 2.308 0 0 1-.181-1.004c.003-.161.028-.334.071-.5.123-.485.253-.965.38-1.448l.237-.895c.089-.332.178-.662.256-.999l.137-.552c.163-.67.326-1.336.468-2.011.068-.329.114-.661.162-.993.034-.261.072-.522.12-.78.232-1.255.305-2.514.343-3.577.011-.261.021-.522.036-.785.022-.439.045-.883.049-1.326.006-.988.014-2.294-.021-3.626-.013-.629-.083-1.261-.15-1.871l-.013-.081a45.125 45.125 0 0 0-.259-1.944l-.091-.607c-.094-.656-.191-1.335-.337-1.997-.274-1.241-.599-2.469-.911-3.656a32.688 32.688 0 0 0-.674-2.273c-.189-.563-.201-1.132-.164-1.813.012-.191.174-.342.435-.402.591-.135 5.701-1.33 6.454-1.546.236-.025 3.34-.06 6.066-.06 3.211 0 3.633.048 3.682.057.401.087 2.787.776 4.212 1.188.693.201 1.206.35 1.259.362.446.105.446.146.443.422a7.711 7.711 0 0 1-.056.925c-.025.197-.084.391-.137.584l-.289 1.045c-.12.424-.24.847-.352 1.273-.065.249-.125.498-.181.747-.044.186-.087.372-.133.558-.039.165-.084.33-.13.495-.062.216-.12.433-.173.651-.036.16-.063.323-.087.486-.018.109-.036.22-.058.328-.01.06-.03.12-.049.178-.031.103-.062.206-.078.306a74.93 74.93 0 0 0-.258 1.69l-.088.591c-.083.567-.169 1.135-.234 1.705a34.227 34.227 0 0 0-.146 1.987c-.044.923-.09 1.989-.102 3.039-.003.369.055 1.27.079 1.644zM28.566 7.273l-7.432.425a.354.354 0 0 0-.335.376c.008.19.167.337.355.337h.021l7.432-.425a.357.357 0 0 0 .335-.377c-.007-.195-.152-.345-.376-.336zm-.01-1.635l-7.433.425a.36.36 0 0 0-.339.377c.013.19.168.337.356.337l.021-.001 7.433-.424a.36.36 0 0 0 .339-.377.347.347 0 0 0-.377-.337zm-7.427-.496l.021-.001 7.432-.424a.356.356 0 0 0 .335-.377c-.009-.197-.148-.344-.377-.336l-7.432.424a.355.355 0 0 0-.335.377.356.356 0 0 0 .356.337zm0-1.635l.021-.002 7.432-.425a.355.355 0 0 0 .335-.376c-.009-.197-.148-.343-.377-.337l-7.432.425a.354.354 0 0 0-.335.377.355.355 0 0 0 .356.338z"/><path d="M32.378 24.55l.009-.104c.069-.64.16-1.278.256-1.916l.089-.595c.094-.649.191-1.319.332-1.963.258-1.176.57-2.367.874-3.517l.028-.109c.229-.872.439-1.579.659-2.228a.358.358 0 1 0-.677-.229 33.46 33.46 0 0 0-.673 2.273l-.028.112c-.305 1.156-.621 2.353-.883 3.544-.146.668-.244 1.352-.34 2.014l-.088.59a47.035 47.035 0 0 0-.26 1.945l-.013.103c-.067.603-.136 1.228-.148 1.85-.024 1.045-.03 2.164-.021 3.625.003.451.026.906.049 1.357.015.253.025.501.037.754.035 1.062.106 2.319.341 3.58.048.258.087.52.122.779.045.332.094.664.161.992.14.674.304 1.343.468 2.011l.136.555c.079.327.165.653.251.977l.236.888c.129.491.262.981.386 1.475a.36.36 0 0 0 .348.271.41.41 0 0 0 .089-.014.357.357 0 0 0 .258-.434c-.124-.494-.258-.989-.391-1.483l-.234-.883c-.083-.322-.17-.645-.246-.966l-.136-.555c-.162-.66-.325-1.323-.464-1.987-.066-.312-.105-.63-.151-.945a20.497 20.497 0 0 0-.129-.813c-.224-1.215-.292-2.437-.331-3.473-.008-.256-.022-.511-.033-.767-.023-.442-.046-.881-.048-1.323a99.99 99.99 0 0 1 .017-3.604c.015-.59.082-1.199.148-1.787z"/></g></svg>