<svg xmlns="http://www.w3.org/2000/svg" width="65" height="65" viewBox="0 0 65 65"><path d="M5.828 28.204L.139 43.633a2.353 2.353 0 0 0 .297 2.162 2.376 2.376 0 0 0 1.95 1.008l13.409-.012.009 15.861c0 .864.715 1.564 1.579 1.564h19.781a2.415 2.415 0 0 0 2.417-2.408V46.771l3.003-.006c1.413 0 2.722.703 3.506 1.879.805 1.213 1.608 2.918 2.458 4.73 1.873 3.95 3.977 8.438 7.422 11.164.388.297.832.461 1.297.461.7 0 1.387-.368 1.791-.951.394-.58.479-1.285.227-1.947-2.911-7.646-6.289-23.521-6.957-26.747h12.639l.021-12.046-51.114.027c-4.04-.001-6.966 1.779-8.046 4.869zm58.175 6.191H51.154l.113.575c.033.188 3.852 18.901 7.113 27.473.188.491.011.878-.112 1.057-.383.549-1.152.715-1.696.283-3.267-2.585-5.337-6.957-7.156-10.818-.864-1.845-1.688-3.583-2.526-4.853a5.153 5.153 0 0 0-4.316-2.305l-3.956.007v15.995c0 .797-.645 1.455-1.453 1.455H17.383a.614.614 0 0 1-.614-.611l-.011-16.825-14.372.008c-.472 0-.888-.215-1.158-.594a1.41 1.41 0 0 1-.191-1.279l5.691-15.434c1.288-3.678 5.027-4.234 7.145-4.234l50.148-.023-.018 10.123z"/><path d="M34.529 49.41a.483.483 0 0 0-.48.485V61.63c0 .265.216.482.48.482a.484.484 0 0 0 .482-.482V49.896a.484.484 0 0 0-.482-.486zm-6.839 0a.478.478 0 0 0-.479.485V61.63a.476.476 0 1 0 .953 0V49.896a.476.476 0 0 0-.474-.486zm-6.844 0a.486.486 0 0 0-.483.485V61.63c0 .265.22.482.483.482a.485.485 0 0 0 .483-.482V49.896a.487.487 0 0 0-.483-.486zM6.202 34.733a.48.48 0 0 0 .482.482h42.353a.48.48 0 0 0 0-.959H6.685a.48.48 0 0 0-.483.477zm30.321 11.071H18.23a.479.479 0 1 0 0 .959h18.293a.48.48 0 0 0 0-.959zM55.84 32.808a.479.479 0 0 0 .482-.477v-6.738c0-.265-.218-.483-.482-.483s-.479.218-.479.483v6.738a.475.475 0 0 0 .479.477z"/></svg>