<svg xmlns="http://www.w3.org/2000/svg" width="50" height="50" viewBox="0 0 50 50"><path d="M29.014 10.009h-8.028a4.99 4.99 0 0 0-4.985 4.985v29.129a2.732 2.732 0 0 0 2.729 2.73h12.54a2.734 2.734 0 0 0 2.73-2.73V14.995a4.991 4.991 0 0 0-4.986-4.986zm4.31 34.115a2.057 2.057 0 0 1-2.054 2.054H18.73a2.057 2.057 0 0 1-2.055-2.054V14.995a4.316 4.316 0 0 1 4.311-4.31h8.028a4.315 4.315 0 0 1 4.31 4.31v29.129zM21.487 8.862l.021-.001 7.025-.401a.337.337 0 0 0 .318-.356c-.009-.187-.149-.325-.356-.318l-7.026.401a.338.338 0 0 0 .018.675zm0-1.546l.02-.001 7.026-.401a.338.338 0 0 0 .318-.357c-.01-.186-.148-.323-.356-.318l-7.027.401a.337.337 0 0 0-.318.356.34.34 0 0 0 .337.32zm0-1.546a.136.136 0 0 0 .02-.002l7.026-.401a.336.336 0 0 0 .318-.356c-.01-.186-.146-.322-.356-.318l-7.026.401a.338.338 0 0 0 .018.676zm0-1.547h.02l7.026-.402a.337.337 0 0 0 .318-.356c-.01-.185-.146-.322-.356-.318l-7.026.401a.34.34 0 0 0-.318.357c.01.179.158.318.336.318z" fill="#FFF"/></svg>