<svg xmlns="http://www.w3.org/2000/svg" width="65" height="65" viewBox="0 0 65 65"><path d="M50.5 44.829a23 23 0 0 0-1.613-8.531c-.018-.062-2.83-6.67-7.435-9.373l-.115-.069-17.545-.084-.122.071c-5.342 3.164-7.539 9.394-7.546 9.418a23.002 23.002 0 0 0-1.624 8.568c0 5.243 1.701 10.21 4.792 14.025-.022.191-.032.38-.032.578a5.576 5.576 0 0 0 5.573 5.566h15.332a5.57 5.57 0 0 0 5.567-5.566c0-.198-.002-.387-.025-.578 3.092-3.816 4.793-8.787 4.793-14.025zm-5.822 13.94a4.56 4.56 0 0 1-4.513 5.216H24.833a4.56 4.56 0 0 1-4.556-4.552c0-.228.013-.445.045-.664l.027-.215-.141-.176c-3.025-3.655-4.694-8.466-4.694-13.549 0-2.841.521-5.6 1.563-8.224.019-.057 2.101-5.852 6.989-8.818l16.989.083c4.199 2.545 6.847 8.692 6.875 8.767a22.03 22.03 0 0 1 1.554 8.192c0 5.079-1.669 9.893-4.694 13.549l-.141.176.029.215z"/><path d="M46.295 37.783c-.012-.048-2.012-5.215-5.344-7.347l-.544.856c2.987 1.91 4.903 6.743 4.925 6.8a18.52 18.52 0 0 1 1.104 6.335c0 3.924-1.182 7.642-3.325 10.47l.809.608c2.278-2.999 3.528-6.934 3.528-11.078-.003-2.323-.393-4.57-1.153-6.644zm-5.887-14.296l-14.541.832a.506.506 0 1 0 .028 1.012l.029-.001 14.535-.832a.514.514 0 0 0 .483-.531c-.017-.281-.203-.484-.534-.48zm-.026-3.2l-14.548.833a.498.498 0 0 0-.471.534.511.511 0 0 0 .514.478l.021-.001 14.542-.832a.505.505 0 0 0 .477-.531c-.015-.281-.212-.492-.535-.481zm-14.548-1.355l.043-.001 14.534-.832a.496.496 0 0 0 .47-.534c-.007-.277-.211-.483-.527-.478l-14.541.833a.506.506 0 0 0-.478.533.5.5 0 0 0 .499.479zm0-3.2l.043-.001 14.534-.833a.495.495 0 0 0 .47-.533c-.007-.277-.211-.488-.527-.478l-14.541.834a.506.506 0 0 0-.478.533.5.5 0 0 0 .499.478z"/></svg>