<svg xmlns="http://www.w3.org/2000/svg" width="65" height="65" viewBox="0 0 65 65"><path d="M38.469 10.206H26.53c-4.088 0-7.414 3.326-7.414 7.414v43.318c0 2.24 1.82 4.061 4.059 4.061h18.648a4.065 4.065 0 0 0 4.061-4.061V17.62c0-4.088-3.325-7.414-7.415-7.414zm6.409 50.732a3.06 3.06 0 0 1-3.055 3.055H23.175a3.06 3.06 0 0 1-3.056-3.055V17.62c0-3.533 2.877-6.409 6.411-6.409h11.939a6.416 6.416 0 0 1 6.409 6.409v43.318zM27.275 8.5l.03-.001 10.448-.597a.503.503 0 0 0 .474-.53c-.014-.278-.223-.484-.53-.474l-10.45.597a.506.506 0 0 0-.474.53.506.506 0 0 0 .502.475zm0-2.299l.029-.001 10.449-.597a.504.504 0 0 0 .474-.532c-.015-.276-.221-.48-.53-.473l-10.45.598a.504.504 0 0 0 .028 1.005zm0-2.299a.15.15 0 0 0 .029-.003l10.449-.597a.502.502 0 0 0 .474-.53c-.015-.276-.217-.479-.53-.474l-10.45.598a.505.505 0 0 0-.474.53.505.505 0 0 0 .502.476zm0-2.3h.029l10.449-.599a.502.502 0 0 0 .474-.53c-.015-.274-.217-.479-.531-.473L27.247.597a.506.506 0 0 0-.474.531.504.504 0 0 0 .502.474z"/></svg>