<?xml version="1.0" encoding="utf-8"?>
<!-- Generator: Adobe Illustrator 18.1.1, SVG Export Plug-In . SVG Version: 6.00 Build 0)  -->
<svg version="1.1" id="Режим_изоляции"
	 xmlns="http://www.w3.org/2000/svg" xmlns:xlink="http://www.w3.org/1999/xlink" x="0px" y="0px" viewBox="0 0 26.5 25.2"
	 enable-background="new 0 0 26.5 25.2" xml:space="preserve">
<g>
	<path fill-rule="evenodd" clip-rule="evenodd" fill="#BD9755" d="M16.4,5.7h-6.2V2.6h3.3c1.6,0,2.9,1.3,2.9,2.9V5.7z M22.5,11.6
		l-0.5,0H19V8.4V8.3V5.7V5.4c0-3-2.4-5.4-5.4-5.4H7.9C7.8,0,7.7,0.1,7.7,0.1v5.6H4.5c-2.2,0-4.2,1.7-4.3,3.9C0,12,1.9,14,4.2,14.1v0
		h3.5v3.3H4.2c-0.9,0-1.6-0.7-1.7-1.5c0-0.1-0.1-0.1-0.1-0.1H0.1C0.1,15.8,0,15.9,0,16C0.1,18.2,1.9,20,4.2,20h3.2h0.3h2.6h0.3h5.8
		c-0.1,1.5-1.3,2.6-2.8,2.6h-3.3v-1.9c0-0.1-0.1-0.1-0.1-0.1H7.9c-0.1,0-0.1,0.1-0.1,0.1v4.4c0,0.1,0.1,0.1,0.1,0.1h5.7
		c2.9,0,5.3-2.3,5.4-5.2l0-0.6v-1.9v-0.4v-2.3c0-0.1-0.1-0.1-0.1-0.1h-2.3c-0.1,0-0.1,0.1-0.1,0.1v2.6h-6.2v-3.3l0,0v-2.5l0,0V9
		c0-0.1-0.1-0.1-0.1-0.1H7.9C7.8,8.8,7.7,8.9,7.7,9v2.6H4.5c-0.8,0-1.6-0.6-1.7-1.4c-0.1-1,0.7-1.9,1.6-1.9h3h0.3h2.6h0.3h5.8v3.3
		H11c-0.1,0-0.1,0.1-0.1,0.1V14c0,0.1,0.1,0.1,0.1,0.1h5.1v0h3.2v0h3c0.8,0,1.6,0.6,1.7,1.4c0.1,1-0.7,1.9-1.6,1.9h-2.6
		c-0.1,0-0.1,0.1-0.1,0.1v2.3c0,0.1,0.1,0.1,0.1,0.1h2.5c2.2,0,4.2-1.7,4.3-3.9C26.6,13.7,24.8,11.7,22.5,11.6L22.5,11.6z M19.5,8.1
		c0,0.1,0.1,0.1,0.1,0.1h1.9c0.9,0,1.6,0.7,1.7,1.5c0,0.1,0.1,0.1,0.1,0.1h2.3c0.1,0,0.2-0.1,0.1-0.2c-0.1-2.3-1.9-4.1-4.2-4.1h-1.9
		c-0.1,0-0.1,0.1-0.1,0.1V8.1z"/>
</g>
</svg>
