<?xml version="1.0" encoding="utf-8"?>
<!-- Generator: Adobe Illustrator 18.1.1, SVG Export Plug-In . SVG Version: 6.00 Build 0)  -->
<svg version="1.0" id="Слой_1" xmlns="http://www.w3.org/2000/svg" xmlns:xlink="http://www.w3.org/1999/xlink" x="0px" y="0px"
	 viewBox="0 0 65 65" enable-background="new 0 0 65 65" xml:space="preserve">
<g>
	<path fill="#FFFFFF" d="M56.2,13.8h-2.1V8c0-1.3-1-2.3-2.3-2.3h-8.2c-1.3,0-2.3,1-2.3,2.3v5.8h-2.1c-1.3,0-2.3,1-2.3,2.3v5.1
		c0,1.3,1,2.3,2.3,2.3h7.9v34.1c0,0.3,0.2,0.5,0.5,0.5s0.5-0.2,0.5-0.5V23.5h8.1c1.3,0,2.3-1,2.3-2.3v-5.1
		C58.5,14.8,57.5,13.8,56.2,13.8z M42.3,8c0-0.7,0.6-1.3,1.3-1.3h8.2c0.7,0,1.3,0.6,1.3,1.3v5.6H42.3V8z M57.5,21.2
		c0,0.7-0.6,1.3-1.3,1.3h-17c-0.7,0-1.3-0.6-1.3-1.3v-5.1c0-0.7,0.6-1.3,1.3-1.3h17c0.7,0,1.3,0.6,1.3,1.3V21.2z"/>
	<path fill="#FFFFFF" d="M31.8,8.4h-5.4V5.4h0.7C27.6,5.4,28,5,28,4.5V1.2c0-0.5-0.4-0.9-0.9-0.9H13.5c-0.5,0-0.9,0.4-0.9,0.9v3.3
		c0,0.5,0.4,0.9,0.9,0.9h0.7v3.1H8.8c-1.3,0-2.3,1-2.3,2.3v51.6c0,1.3,1,2.3,2.3,2.3h23c1.3,0,2.3-1,2.3-2.3V10.8
		C34.2,9.5,33.1,8.4,31.8,8.4z M13.6,4.4V1.3H27v3.1h-0.6H14.3H13.6z M25.4,5.4v3.1H15.3V5.4H25.4z M33.2,62.4
		c0,0.7-0.6,1.3-1.3,1.3h-23c-0.7,0-1.3-0.6-1.3-1.3V10.8c0-0.7,0.6-1.3,1.3-1.3H10v51.4c0,0.3,0.2,0.5,0.5,0.5s0.5-0.2,0.5-0.5V9.4
		h3.3v0h12.1v0h3.3v51.4c0,0.3,0.2,0.5,0.5,0.5s0.5-0.2,0.5-0.5V9.4h1.1c0.7,0,1.3,0.6,1.3,1.3V62.4z"/>
	<path fill="#FFFFFF" d="M47.7,8.1c-1.2,0-2.1,1-2.1,2.1s1,2.1,2.1,2.1s2.1-1,2.1-2.1S48.9,8.1,47.7,8.1z M47.7,11.4
		c-0.6,0-1.1-0.5-1.1-1.1s0.5-1.1,1.1-1.1s1.1,0.5,1.1,1.1S48.3,11.4,47.7,11.4z"/>
	<path fill="#FFFFFF" d="M56,20.3H39.4c-0.3,0-0.5,0.2-0.5,0.5s0.2,0.5,0.5,0.5H56c0.3,0,0.5-0.2,0.5-0.5S56.3,20.3,56,20.3z"/>
</g>
</svg>
