<?xml version="1.0" encoding="utf-8"?>
<!-- Generator: Adobe Illustrator 18.1.1, SVG Export Plug-In . SVG Version: 6.00 Build 0)  -->
<svg version="1.0" id="Слой_1" xmlns="http://www.w3.org/2000/svg" xmlns:xlink="http://www.w3.org/1999/xlink" x="0px" y="0px"
	 viewBox="0 0 65 65" enable-background="new 0 0 65 65" xml:space="preserve">
<g>
	<g>
		<path fill="#FFFFFF" d="M41.1,64.7H9.5V8.1h31.6c3.5,0,6.4,2.9,6.4,6.4v43.8C47.5,61.9,44.6,64.7,41.1,64.7z M10.5,63.7h30.6
			c3,0,5.4-2.4,5.4-5.4V14.5c0-3-2.4-5.4-5.4-5.4H10.5V63.7z"/>
	</g>
	<g>
		<path fill="#FFFFFF" d="M49.8,29h-3.3V14.8h3.3c1.3,0,2.4,1.1,2.4,2.4v9.4C52.2,27.9,51.1,29,49.8,29z M47.5,28h2.3
			c0.8,0,1.4-0.6,1.4-1.4v-9.4c0-0.8-0.6-1.4-1.4-1.4h-2.3V28z"/>
	</g>
	<g>
		<path fill="#FFFFFF" d="M49.8,45.8h-3.3V31.5h3.3c1.3,0,2.4,1.1,2.4,2.4v9.4C52.2,44.7,51.1,45.8,49.8,45.8z M47.5,44.8h2.3
			c0.8,0,1.4-0.6,1.4-1.4v-9.4c0-0.8-0.6-1.4-1.4-1.4h-2.3V44.8z"/>
	</g>
	<g>
		<polygon fill="#FFFFFF" points="55.5,64.7 39.7,64.7 39.7,63.7 54.5,63.7 54.5,9.1 39.7,9.1 39.7,8.1 55.5,8.1 		"/>
	</g>
	<g>
		<rect x="15.8" y="18.8" fill="#FFFFFF" width="24.5" height="1"/>
	</g>
	<g>
		<rect x="15.8" y="31.9" fill="#FFFFFF" width="24.5" height="1"/>
	</g>
	<g>
		<rect x="15.8" y="25.3" fill="#FFFFFF" width="24.5" height="1"/>
	</g>
	<g>
		<rect x="15.8" y="38.4" fill="#FFFFFF" width="24.5" height="1"/>
	</g>
	<g>
		<rect x="15.8" y="45" fill="#FFFFFF" width="24.5" height="1"/>
	</g>
	<g>
		<rect x="15.8" y="51.6" fill="#FFFFFF" width="24.5" height="1"/>
	</g>
</g>
</svg>
