<?xml version="1.0" encoding="utf-8"?>
<!-- Generator: Adobe Illustrator 18.1.1, SVG Export Plug-In . SVG Version: 6.00 Build 0)  -->
<svg version="1.0" id="Слой_1" xmlns="http://www.w3.org/2000/svg" xmlns:xlink="http://www.w3.org/1999/xlink" x="0px" y="0px"
	 viewBox="0 0 65 65" enable-background="new 0 0 65 65" xml:space="preserve">
<g>
	<path fill="#FFFFFF" d="M8.1,26.5l-5.9,16c-0.3,0.8-0.2,1.6,0.3,2.2c0.5,0.7,1.2,1,2,1l8.9,0l0,16.5c0,0.9,0.7,1.6,1.6,1.6h20.6
		c1.4,0,2.5-1.1,2.5-2.5V45.8l3.1,0c1.5,0,2.8,0.7,3.6,1.9c0.8,1.3,1.7,3,2.6,4.9c1.9,4.1,4.1,8.8,7.7,11.6c0.4,0.3,0.9,0.5,1.4,0.5
		c0.7,0,1.4-0.4,1.9-1c0.4-0.6,0.5-1.3,0.2-2c-3-7.9-6.5-24.4-7.2-27.8h11.5l0-12.5l-46.5,0C12.2,21.4,9.2,23.3,8.1,26.5z
		 M61.9,32.9H50.2l0.1,0.6c0,0.2,4,19.6,7.4,28.5c0.2,0.5,0,0.9-0.1,1.1c-0.4,0.6-1.2,0.7-1.8,0.3c-3.4-2.7-5.5-7.2-7.4-11.2
		c-0.9-1.9-1.8-3.7-2.6-5c-1-1.5-2.7-2.4-4.5-2.4l-4.1,0v16.6c0,0.8-0.7,1.5-1.5,1.5H15.1c-0.4,0-0.6-0.3-0.6-0.6l0-17.5l-9.9,0
		c-0.5,0-0.9-0.2-1.2-0.6C3,43.8,3,43.3,3.1,42.9l5.9-16c1.3-3.8,5.2-4.4,7.4-4.4l45.5,0L61.9,32.9z"/>
	<rect x="32.4" y="49" fill="#FFFFFF" width="1" height="12.2"/>
	<rect x="25.3" y="49" fill="#FFFFFF" width="1" height="12.2"/>
	<rect x="18.2" y="49" fill="#FFFFFF" width="1" height="12.2"/>
	<rect x="8.4" y="33.5" fill="#FFFFFF" width="39" height="1"/>
	<rect x="15.4" y="45.5" fill="#FFFFFF" width="19" height="1"/>
	<rect x="54.4" y="24.5" fill="#FFFFFF" width="1" height="7"/>
</g>
</svg>
