<?xml version="1.0" encoding="utf-8"?>
<!-- Generator: Adobe Illustrator 18.1.1, SVG Export Plug-In . SVG Version: 6.00 Build 0)  -->
<svg version="1.0" id="Слой_1" xmlns="http://www.w3.org/2000/svg" xmlns:xlink="http://www.w3.org/1999/xlink" x="0px" y="0px"
	 viewBox="0 0 65 65" enable-background="new 0 0 65 65" xml:space="preserve">
<g>
	<path fill="#FFFFFF" d="M53.6,35.3h-3.8c0-0.1,0.1-0.2,0.1-0.3v-5.7c0-0.6-0.5-1.1-1.1-1.1H16.2c-0.6,0-1.1,0.5-1.1,1.1v5.7
		c0,0.1,0,0.2,0.1,0.3h-3.8c-2.4,0-4.4,2-4.4,4.4v17.1c0,4.3,3.5,7.8,7.8,7.8h35.5c4.3,0,7.8-3.5,7.8-7.8V39.8
		C58.1,37.3,56.1,35.3,53.6,35.3z M16.1,32.3l19.8-0.7l0-1l-19.8,0.7v-1.9c0,0,0-0.1,0.1-0.1h32.6c0,0,0.1,0,0.1,0.1v2.9l-20.4,0.8
		l0,1l20.3-0.7v1.7c0,0,0,0.1-0.1,0.1H16.2c0,0-0.1,0-0.1-0.1V32.3z M57.1,56.9c0,3.8-3.1,6.8-6.8,6.8H14.8c-3.8,0-6.8-3.1-6.8-6.8
		V39.8c0-1.9,1.5-3.4,3.4-3.4h42.2c1.9,0,3.4,1.5,3.4,3.4V56.9z"/>
	<path fill="#FFFFFF" d="M10.4,25.2h44.2c0.7,0,1.3-0.5,1.3-1.1V19l-6.6-4.8H15.7L9.1,19v5.1C9.1,24.7,9.7,25.2,10.4,25.2z
		 M10.1,19.5l5.9-4.3H49l5.9,4.3l0,4.6c0,0-0.1,0.1-0.3,0.1H10.4c-0.2,0-0.3-0.1-0.3-0.1V19.5z"/>
</g>
</svg>
