<?xml version="1.0" encoding="utf-8"?>
<!-- Generator: Adobe Illustrator 18.1.1, SVG Export Plug-In . SVG Version: 6.00 Build 0)  -->
<svg version="1.0" id="Слой_1" xmlns="http://www.w3.org/2000/svg" xmlns:xlink="http://www.w3.org/1999/xlink" x="0px" y="0px"
	 viewBox="0 0 65 65" enable-background="new 0 0 65 65" xml:space="preserve">
<g>
	<path fill="#FFFFFF" d="M28.3,34.3v-1.1h2.3c0.5,0,0.9-0.4,0.9-0.9v-2.3c0-0.5-0.4-0.9-0.9-0.9h-2.3v-1.5h1.4v-9.6l-0.2-0.1
		c-0.6-0.4-2.4-1.8-2.8-2.7c-0.4-1-0.9-5.4-1-7l0-0.5h-7l0,0.5c-0.1,1.6-0.6,5.8-0.9,6.8c-0.4,0.9-2.2,2.4-2.9,2.9l-0.2,0.1v9.6h1.4
		V29h-2.3c-0.5,0-0.9,0.4-0.9,0.9v2.3c0,0.5,0.4,0.9,0.9,0.9h2.3v1.1c-2.6,0.6-4.6,2.9-4.6,5.7v21.1c0,2,1.6,3.7,3.7,3.7h14.1
		c2,0,3.7-1.6,3.7-3.7V39.9C32.9,37.2,31,34.8,28.3,34.3z M15.7,26.4v-8.1c0.7-0.5,2.5-2,3-3.2c0.4-1.1,0.8-5.2,1-6.6h5.1
		c0.1,1.5,0.6,5.7,1,6.8c0.5,1.1,2.3,2.5,2.9,3v8.1H15.7z M27.3,27.4V29H17.1v-1.5H27.3z M13.8,32.2L13.7,30l16.9-0.1v2.3L13.8,32.2
		z M27.3,33.2v1c-0.1,0-0.1,0-0.2,0h-9.9c-0.1,0-0.1,0-0.2,0v-1H27.3z M31.9,61.1c0,1.5-1.2,2.7-2.7,2.7H15.1
		c-1.5,0-2.7-1.2-2.7-2.7V39.9c0-2.6,2.1-4.8,4.8-4.8h9.9c2.6,0,4.8,2.1,4.8,4.8V61.1z"/>
	<rect x="16.6" y="19.7" fill="#FFFFFF" width="0.5" height="6"/>
	<rect x="18.7" y="19.7" fill="#FFFFFF" width="1" height="6"/>
	<rect x="21.5" y="19.7" fill="#FFFFFF" width="1.5" height="6"/>
	<rect x="24.8" y="19.7" fill="#FFFFFF" width="1" height="6"/>
	<rect x="27.4" y="19.7" fill="#FFFFFF" width="0.5" height="6"/>
	<path fill="#FFFFFF" d="M51.4,19.9h-1h-3.1v-0.7c0-1.4-1.1-2.5-2.5-2.5h-6.8c-1.4,0-2.5,1.1-2.5,2.5v7.5c0,0.7,0.6,1.4,1.4,1.4h3.7
		v30.4h1V28H46c0.7,0,1.4-0.6,1.4-1.4v-1.8h3.1V46h3.1V19.9H51.4z M46.4,26.7c0,0.2-0.2,0.4-0.4,0.4h-9c-0.2,0-0.4-0.2-0.4-0.4v-7.5
		c0-0.8,0.7-1.5,1.5-1.5h6.8c0.8,0,1.5,0.7,1.5,1.5V26.7z M50.4,23.9h-3v-3h3V23.9z M52.5,45h-1.1V24.9v-4h1.1V45z"/>
</g>
</svg>
