<?xml version="1.0" encoding="utf-8"?>
<!-- Generator: Adobe Illustrator 18.1.1, SVG Export Plug-In . SVG Version: 6.00 Build 0)  -->
<svg version="1.0" id="Слой_1" xmlns="http://www.w3.org/2000/svg" xmlns:xlink="http://www.w3.org/1999/xlink" x="0px" y="0px"
	 viewBox="0 0 65 65" enable-background="new 0 0 65 65" xml:space="preserve">
<g>
	<path fill="#FFFFFF" d="M38.9,36.4c0-0.1-2.7-6.6-7.3-9.2l-0.1-0.1L14.2,27L14,27.1c-5.2,3.1-7.4,9.3-7.4,9.3C5.5,39,5,41.9,5,44.8
		C5,50,6.7,54.9,9.7,58.7c0,0.2,0,0.4,0,0.6c0,3,2.5,5.5,5.5,5.5h15.1c3,0,5.5-2.5,5.5-5.5c0-0.2,0-0.4,0-0.6
		c3-3.8,4.7-8.7,4.7-13.8C40.5,41.9,40,39,38.9,36.4z M34.9,58.2l-0.1,0.2l0,0.2c0,0.2,0,0.4,0,0.6c0,2.5-2,4.5-4.5,4.5H15.2
		c-2.5,0-4.5-2-4.5-4.5c0-0.2,0-0.4,0-0.6l0-0.2l-0.1-0.2C7.7,54.6,6,49.8,6,44.8c0-2.8,0.5-5.5,1.5-8.1c0-0.1,2.1-5.8,6.9-8.7
		l16.8,0.1c4.2,2.5,6.8,8.6,6.8,8.6c1,2.6,1.5,5.3,1.5,8.1C39.5,49.8,37.9,54.6,34.9,58.2z"/>
	<path fill="#FFFFFF" d="M31.1,30.6l-0.5,0.8c2.9,1.9,4.8,6.6,4.9,6.7c0.7,2,1.1,4.1,1.1,6.2c0,3.9-1.2,7.5-3.3,10.3l0.8,0.6
		c2.2-3,3.5-6.8,3.5-10.9c0-2.3-0.4-4.5-1.1-6.6C36.3,37.8,34.4,32.7,31.1,30.6z"/>
	<path fill="#FFFFFF" d="M30.6,23.8l-14.3,0.8c-0.3,0-0.5,0.3-0.5,0.5c0,0.3,0.2,0.5,0.5,0.5c0,0,0,0,0,0l14.3-0.8
		c0.3,0,0.5-0.3,0.5-0.5C31.1,24,30.8,23.8,30.6,23.8z"/>
	<path fill="#FFFFFF" d="M30.5,20.6l-14.3,0.8c-0.3,0-0.5,0.3-0.5,0.5c0,0.3,0.2,0.5,0.5,0.5c0,0,0,0,0,0l14.3-0.8
		c0.3,0,0.5-0.3,0.5-0.5C31,20.8,30.8,20.6,30.5,20.6z"/>
	<path fill="#FFFFFF" d="M16.2,19.3C16.2,19.3,16.2,19.3,16.2,19.3l14.4-0.8c0.3,0,0.5-0.3,0.5-0.5c0-0.3-0.3-0.5-0.5-0.5l-14.3,0.8
		c-0.3,0-0.5,0.3-0.5,0.5C15.7,19.1,15.9,19.3,16.2,19.3z"/>
	<path fill="#FFFFFF" d="M16.2,16.1C16.2,16.1,16.2,16.1,16.2,16.1l14.4-0.8c0.3,0,0.5-0.3,0.5-0.5c0-0.3-0.3-0.5-0.5-0.5l-14.3,0.8
		c-0.3,0-0.5,0.3-0.5,0.5C15.7,15.9,15.9,16.1,16.2,16.1z"/>
	<path fill="#FFFFFF" d="M51.4,32.4c0-1.7,0.1-3.9,0.1-6.1c0.1-2.2,0.2-4.5,0.3-6.1c0.1-1.7,0.2-2.8,0.2-2.8h-2.1
		c0,0,0.1,1.1,0.2,2.8c0.1,1.7,0.2,3.9,0.3,6.1c0.1,2.2,0.1,4.5,0.1,6.1c0,1,0,1.7,0,2.2h-8v26.6c0,1.9,1.5,3.4,3.4,3.4h10.8
		c1.9,0,3.4-1.5,3.4-3.4V34.6h-8.6C51.4,34.1,51.4,33.3,51.4,32.4z M59,35.6v25.6c0,1.3-1.1,2.4-2.4,2.4H45.8
		c-1.3,0-2.4-1.1-2.4-2.4V35.6H59z"/>
</g>
</svg>
