<svg xmlns="http://www.w3.org/2000/svg" xmlns:xlink="http://www.w3.org/1999/xlink" preserveAspectRatio="xMidYMid" width="59" height="47" viewBox="0 0 59 47">
  <defs>
    <style>
      .cls-1 {
        fill: #fff;
        fill-rule: evenodd;
      }
    </style>
  </defs>
  <path d="M11.134,24.675 C4.995,24.675 -0.000,29.683 -0.000,35.837 C-0.000,41.992 4.995,47.000 11.134,47.000 C17.274,47.000 22.269,41.992 22.269,35.837 C22.269,29.683 17.274,24.675 11.134,24.675 ZM11.134,43.150 C7.112,43.150 3.840,39.870 3.840,35.837 C3.840,31.805 7.112,28.525 11.134,28.525 C15.157,28.525 18.429,31.805 18.429,35.837 C18.429,39.870 15.158,43.150 11.134,43.150 ZM43.404,29.748 C38.719,29.748 34.907,33.569 34.907,38.266 C34.907,42.964 38.719,46.785 43.404,46.785 C48.090,46.785 51.902,42.965 51.902,38.266 C51.902,33.569 48.091,29.748 43.404,29.748 ZM43.404,43.411 C40.574,43.411 38.273,41.102 38.273,38.266 C38.273,35.430 40.576,33.123 43.404,33.123 C46.234,33.123 48.537,35.430 48.537,38.266 C48.537,41.102 46.234,43.411 43.404,43.411 ZM23.499,34.964 L34.103,34.964 C33.618,36.138 33.346,37.421 33.345,38.769 L23.234,38.775 C23.435,37.893 23.552,36.978 23.552,36.033 C23.552,35.672 23.530,35.319 23.499,34.964 ZM58.610,25.850 C58.610,24.986 57.909,24.283 57.047,24.283 L37.381,19.975 L30.947,1.179 C30.770,0.486 30.146,-0.000 29.432,-0.000 L8.554,-0.000 C7.690,-0.000 6.992,0.702 6.992,1.566 C6.992,2.432 7.691,3.133 8.554,3.133 L11.201,3.133 L11.201,17.390 C10.672,17.291 10.129,17.233 9.572,17.233 C4.718,17.233 0.781,21.179 0.781,26.046 L0.781,29.081 C2.901,25.445 6.827,22.996 11.330,22.996 C17.451,22.996 22.506,27.512 23.398,33.398 L34.474,33.398 C36.127,30.231 39.430,28.069 43.243,28.069 C48.704,28.069 53.131,32.502 53.139,37.976 L56.092,37.973 C56.150,37.979 54.254,37.992 54.312,37.992 L57.437,37.992 C58.300,37.992 59.000,37.288 59.000,36.426 L58.610,25.850 ZM25.699,19.453 C23.849,13.877 15.908,13.326 15.147,13.326 L14.327,13.326 L14.327,3.133 L28.218,3.133 L34.063,19.453 L25.699,19.453 Z" class="cls-1"/>
</svg>
