<svg xmlns="http://www.w3.org/2000/svg" xmlns:xlink="http://www.w3.org/1999/xlink" preserveAspectRatio="xMidYMid" width="68.062" height="41.156" viewBox="0 0 68.062 41.156">
  <defs>
    <style>
      .cls-1 {
        fill: #264ea8;
        filter: url(#inner-shadow-1);
        fill-rule: evenodd;
      }
    </style>

    <filter id="inner-shadow-1" filterUnits="userSpaceOnUse">
      <feOffset dx="0.5" dy="0.866" in="SourceAlpha"/>
      <feGaussianBlur result="innerShadowBlur"/>
      <feFlood flood-color="#5e5e5e"/>
      <feComposite operator="out" in2="innerShadowBlur"/>
      <feComposite operator="in" in2="SourceAlpha"/>
      <feBlend mode="overlay" in2="SourceGraphic" result="innerShadow"/>
    </filter>
  </defs>
  <path d="M63.520,26.750 L61.921,26.750 C61.969,26.950 62.007,27.154 62.034,27.361 L67.167,27.361 L67.110,29.589 L61.888,29.589 C61.233,32.030 59.002,33.833 56.358,33.833 C53.712,33.833 51.480,32.030 50.824,29.589 L48.997,29.589 L48.059,29.589 L47.548,28.159 L46.702,27.943 L46.702,27.361 L47.793,27.361 L49.026,27.361 L50.678,27.361 C50.705,27.154 50.743,26.950 50.792,26.750 L49.157,26.750 L46.663,26.750 L46.663,5.429 C46.663,5.429 56.116,5.429 59.122,5.429 L66.904,15.481 L66.904,21.797 L68.072,23.016 L68.072,26.752 L63.520,26.750 ZM56.357,30.850 C57.872,30.850 59.104,29.619 59.104,28.106 C59.104,26.593 57.872,25.362 56.357,25.362 C54.843,25.362 53.611,26.593 53.611,28.106 C53.611,29.619 54.843,30.850 56.357,30.850 ZM58.066,7.815 L48.998,7.815 L48.998,15.098 L63.288,15.098 L58.066,7.815 ZM48.191,33.624 L47.533,37.106 L46.754,37.106 L46.754,38.275 L42.819,38.275 C42.188,39.955 40.567,41.150 38.665,41.150 C36.347,41.150 34.445,39.372 34.247,37.106 L11.656,37.107 C11.458,39.372 9.557,41.150 7.238,41.150 C5.337,41.150 3.716,39.955 3.084,38.275 L0.709,38.275 L0.709,37.107 L0.015,37.107 C0.015,37.075 0.016,37.043 0.018,37.011 L0.012,36.994 L0.015,31.920 L1.172,28.292 L6.587,22.183 C6.587,22.183 7.167,21.583 8.462,21.471 C17.095,20.806 27.441,21.278 28.993,22.053 C30.545,22.829 35.201,27.095 35.201,27.095 L46.203,29.913 L47.230,32.782 L48.191,33.624 ZM7.239,38.352 C8.142,38.352 8.875,37.618 8.875,36.714 C8.875,35.814 8.142,35.081 7.239,35.081 C6.335,35.081 5.601,35.814 5.601,36.714 C5.601,37.618 6.335,38.352 7.239,38.352 ZM16.783,23.026 C12.397,22.930 9.150,23.350 9.150,23.350 L5.884,27.353 L16.783,27.353 L16.783,23.026 ZM27.392,23.490 C27.392,23.490 22.369,23.069 19.585,23.026 L19.585,27.353 L30.484,27.353 L27.392,23.490 ZM38.666,35.081 C37.763,35.081 37.028,35.814 37.028,36.714 C37.028,37.618 37.763,38.352 38.666,38.352 C39.569,38.352 40.303,37.618 40.303,36.714 C40.303,35.814 39.569,35.081 38.666,35.081 ZM29.664,20.177 C27.576,19.133 19.436,19.052 16.991,19.052 C13.864,19.052 10.759,19.164 8.012,19.376 L7.993,19.378 C6.053,19.545 5.033,20.456 4.766,20.732 L4.703,20.801 L1.552,24.355 L1.552,0.001 L45.616,0.001 L45.616,5.467 C45.777,5.467 45.925,5.467 46.082,5.467 L46.082,26.596 L46.082,27.784 L35.962,25.192 C34.498,23.865 31.191,20.940 29.664,20.177 Z" class="cls-1"/>
</svg>
