<svg xmlns="http://www.w3.org/2000/svg" xmlns:xlink="http://www.w3.org/1999/xlink" preserveAspectRatio="xMidYMid" width="101.656" height="24.781" viewBox="0 0 101.656 24.781">
  <defs>
    <style>
      .cls-1 {
        fill: #264ea8;
        filter: url(#inner-shadow-1);
        fill-rule: evenodd;
      }
    </style>

    <filter id="inner-shadow-1" filterUnits="userSpaceOnUse">
      <feOffset dx="0.5" dy="0.866" in="SourceAlpha"/>
      <feGaussianBlur result="innerShadowBlur"/>
      <feFlood flood-color="#5e5e5e"/>
      <feComposite operator="out" in2="innerShadowBlur"/>
      <feComposite operator="in" in2="SourceAlpha"/>
      <feBlend mode="overlay" in2="SourceGraphic" result="innerShadow"/>
    </filter>
  </defs>
  <path d="M100.245,2.696 L97.351,2.697 L97.352,1.952 C97.353,1.179 96.724,0.551 95.949,0.551 C95.174,0.551 94.546,1.178 94.546,1.951 L94.544,2.696 L31.858,2.675 L29.583,0.404 C29.036,-0.142 28.147,-0.143 27.598,0.404 C27.051,0.950 27.050,1.838 27.598,2.385 L29.873,4.656 L29.872,5.688 L1.411,5.680 C1.038,5.680 0.680,5.827 0.418,6.090 C0.155,6.352 0.008,6.708 0.006,7.079 L0.000,23.379 C0.001,23.818 0.207,24.231 0.556,24.494 C0.567,24.504 0.578,24.512 0.589,24.520 C0.933,24.765 1.373,24.843 1.783,24.727 L27.869,17.429 C28.321,18.166 28.913,18.797 29.606,19.291 C30.673,20.052 31.970,20.489 33.338,20.490 C36.881,20.491 39.766,17.614 39.767,14.077 C39.767,13.855 39.755,13.634 39.733,13.415 L53.662,13.420 C55.555,13.420 57.182,12.270 57.881,10.632 L100.244,10.645 C100.615,10.647 100.973,10.498 101.236,10.236 C101.498,9.973 101.647,9.618 101.647,9.245 L101.648,4.100 C101.648,3.326 101.020,2.696 100.245,2.696 ZM33.338,17.689 C32.048,17.689 30.870,16.996 30.229,15.913 L31.355,14.323 L32.121,15.257 C32.201,15.356 32.292,15.441 32.391,15.512 C32.893,15.870 33.594,15.865 34.094,15.456 C34.694,14.965 34.783,14.083 34.292,13.485 L34.234,13.414 L36.895,13.414 C36.936,13.630 36.960,13.851 36.960,14.075 C36.960,16.069 35.335,17.689 33.338,17.689 ZM55.440,8.848 C55.438,9.824 54.642,10.618 53.664,10.618 L32.677,10.611 L32.678,5.478 L55.441,5.485 L55.440,8.848 ZM58.247,7.832 L58.246,5.486 L98.841,5.498 L98.841,7.845 L58.247,7.832 Z" class="cls-1"/>
</svg>
