<svg xmlns="http://www.w3.org/2000/svg" width="36" height="36" viewBox="0 0 36 36"><path fill="#205A9C" d="M34.83 33.584l-.001-.138a1.57 1.57 0 0 0-.468-1.046L23.353 21.523l.483-.63c1.688-2.198 2.579-4.804 2.579-7.536 0-6.611-5.23-12.084-11.908-12.459L13.02.9C6.478 1.269 1.251 6.675 1.171 13.207v.313c.083 6.796 5.744 12.333 12.618 12.333 2.304 0 4.573-.637 6.561-1.842l.601-.364 11.162 11.028c.221.219.5.364.811.425h.621c.321-.062.607-.212.83-.438.281-.284.443-.667.455-1.078zm-21.041-10.93c-5.197 0-9.426-4.17-9.426-9.296s4.229-9.296 9.426-9.296c5.198 0 9.427 4.17 9.427 9.296s-4.229 9.296-9.427 9.296z"/></svg>