<svg xmlns="http://www.w3.org/2000/svg" width="36" height="36" viewBox="0 0 36 36"><path fill="#205A9C" d="M2.513 9.337H33.49c1.109 0 2.012-.902 2.012-2.012S34.6 5.313 33.49 5.313H2.513c-1.109 0-2.011.902-2.011 2.012s.902 2.012 2.011 2.012zm30.977 6.651H2.513C1.404 15.988.502 16.89.502 18s.902 2.012 2.011 2.012H33.49c1.109 0 2.012-.902 2.012-2.012s-.903-2.012-2.012-2.012zm0 10.675H2.513c-1.109 0-2.011.902-2.011 2.012s.902 2.012 2.011 2.012H33.49c1.109 0 2.012-.902 2.012-2.012s-.903-2.012-2.012-2.012z"/></svg>