<svg xmlns="http://www.w3.org/2000/svg" width="26" height="26" viewBox="0 0 26 26"><g fill="#29337E"><path d="M22.36 20.633c0-.466-.208-.919-.6-1.306L19.036 16.6c-.758-.786-1.832-.775-2.596-.011l-1.836 1.828-.788-.382c-.241-.124-.378-.193-.495-.267-1.525-.967-2.904-2.221-4.22-3.83-.61-.774-1.017-1.406-1.33-2.058l-.255-.53.427-.402c.311-.291.606-.589.896-.879l.521-.53c.412-.41.626-.869.626-1.33 0-.459-.214-.917-.622-1.32L8.011 5.532a15.89 15.89 0 0 1-.478-.487c-.282-.29-.586-.598-.893-.885-.387-.382-.827-.574-1.289-.574-.471 0-.928.201-1.325.579L2.354 5.85a3.058 3.058 0 0 0-.922 1.967c-.107 1.327.293 2.592.604 3.429.784 2.11 1.96 4.067 3.704 6.165a22.758 22.758 0 0 0 7.59 5.932c1.096.52 2.564 1.131 4.16 1.232l.274.01c1.001 0 1.813-.355 2.485-1.085.219-.267.5-.542.801-.834.298-.278.505-.487.713-.703.396-.411.597-.859.597-1.33zM16.794 9.202a6.053 6.053 0 0 1 1.705 3.28.919.919 0 0 0 1.064.751.927.927 0 0 0 .757-1.063 7.866 7.866 0 0 0-2.216-4.271 7.916 7.916 0 0 0-4.28-2.215.931.931 0 0 0-1.065.748.928.928 0 0 0 .156.695.89.89 0 0 0 .593.37 6.045 6.045 0 0 1 3.286 1.705z"/><path d="M20.962 5.031a12.834 12.834 0 0 0-6.949-3.602.92.92 0 1 0-.306 1.814 11.011 11.011 0 0 1 5.959 3.083 10.985 10.985 0 0 1 3.089 5.953.92.92 0 0 0 .91.766c.047 0 .09-.006.148-.016a.902.902 0 0 0 .758-1.052 12.803 12.803 0 0 0-3.609-6.946z"/></g></svg>