<svg xmlns="http://www.w3.org/2000/svg" xmlns:xlink="http://www.w3.org/1999/xlink" preserveAspectRatio="xMidYMid" width="179" height="44" viewBox="0 0 179 44">
  <defs>
    <style>
      .cls-1 {
        fill: #264ea8;
        fill-rule: evenodd;
      }
    </style>
  </defs>
  <path d="M8.752,8.231 C11.149,3.501 13.101,-0.009 13.101,-0.009 C13.101,-0.009 26.203,23.551 26.203,30.825 C26.203,38.099 20.337,43.995 13.101,43.995 C5.865,43.995 -0.001,38.099 -0.001,30.825 C-0.001,27.561 2.638,21.015 5.548,14.791 L9.793,23.391 C8.538,25.858 7.405,28.474 7.405,29.884 C7.405,33.176 9.955,35.610 13.101,35.610 C16.247,35.610 18.798,33.306 18.798,29.884 C18.798,26.722 8.752,8.231 8.752,8.231 ZM36.738,28.305 L40.369,38.340 L43.998,28.305 L44.035,28.305 L43.962,37.975 L49.008,37.975 L49.008,16.080 L43.417,16.080 L40.405,26.991 L40.332,26.991 L37.319,16.080 L31.728,16.080 L31.728,37.975 L36.774,37.975 L36.702,28.305 L36.738,28.305 ZM63.295,24.291 L57.849,24.291 L57.849,20.095 L64.384,20.095 L64.384,16.080 L52.404,16.080 L52.404,37.975 L64.384,37.975 L64.384,33.961 L57.849,33.961 L57.849,28.305 L63.295,28.305 L63.295,24.291 ZM75.468,32.684 C75.468,33.998 75.068,34.143 74.197,34.143 C73.326,34.143 72.927,33.998 72.927,32.684 L72.927,21.372 C72.927,20.058 73.326,19.912 74.197,19.912 C75.068,19.912 75.468,20.058 75.468,21.372 L75.468,24.036 L80.913,24.036 L80.913,20.642 C80.913,17.467 79.316,15.752 74.197,15.752 C69.078,15.752 67.481,17.467 67.481,20.642 L67.481,33.414 C67.481,36.588 69.078,38.304 74.197,38.304 C79.316,38.304 80.913,36.588 80.913,33.414 L80.913,27.502 L74.197,27.502 L74.197,31.516 L75.468,31.516 L75.468,32.684 ZM92.775,34.326 L93.210,37.975 L98.402,37.975 L95.135,16.080 L86.930,16.080 L83.663,37.975 L88.855,37.975 L89.326,34.326 L92.775,34.326 ZM91.069,20.460 L92.267,30.312 L89.798,30.312 L90.996,20.460 L91.069,20.460 ZM113.774,16.080 L101.431,16.080 L101.431,37.975 L106.876,37.975 L106.876,28.305 L112.685,28.305 L112.685,24.291 L106.876,24.291 L106.876,19.948 L113.774,19.948 L113.774,16.080 ZM116.839,33.414 C116.839,36.588 118.436,38.304 123.555,38.304 C128.674,38.304 130.271,36.588 130.271,33.414 L130.271,20.642 C130.271,17.467 128.674,15.752 123.555,15.752 C118.436,15.752 116.839,17.467 116.839,20.642 L116.839,33.414 ZM122.285,32.684 L122.285,21.372 C122.285,20.058 122.684,19.912 123.555,19.912 C124.426,19.912 124.826,20.058 124.826,21.372 L124.826,32.684 C124.826,33.998 124.426,34.143 123.555,34.143 C122.684,34.143 122.285,33.998 122.285,32.684 ZM147.266,38.011 C147.121,37.865 147.012,37.172 147.012,36.880 L147.012,32.136 C147.012,30.604 146.685,29.509 146.068,28.815 C145.887,28.633 145.596,28.487 145.161,28.305 L145.161,28.268 C145.632,28.086 145.923,27.903 146.068,27.758 C146.685,27.137 147.012,26.152 147.012,24.838 L147.012,19.730 C147.012,17.102 144.907,16.080 142.837,16.080 L133.580,16.080 L133.580,37.975 L139.025,37.975 L139.025,30.312 L140.477,30.312 C141.203,30.312 141.566,30.787 141.566,31.772 L141.566,36.515 C141.566,36.990 141.603,37.355 141.675,37.610 C141.711,37.865 141.857,38.011 142.111,38.011 L147.266,38.011 ZM140.840,20.095 C141.312,20.095 141.566,20.568 141.566,21.554 L141.566,24.838 C141.566,25.823 141.312,26.298 140.840,26.298 L139.025,26.298 L139.025,20.095 L140.840,20.095 ZM158.321,32.684 C158.321,33.998 157.921,34.143 157.050,34.143 C156.179,34.143 155.780,33.998 155.780,32.684 L155.780,21.372 C155.780,20.058 156.179,19.912 157.050,19.912 C157.921,19.912 158.321,20.058 158.321,21.372 L158.321,24.182 L163.766,24.182 L163.766,20.642 C163.766,17.467 162.169,15.752 157.050,15.752 C151.931,15.752 150.334,17.467 150.334,20.642 L150.334,33.414 C150.334,36.588 151.931,38.304 157.050,38.304 C162.169,38.304 163.766,36.588 163.766,33.414 L163.766,29.764 L158.321,29.764 L158.321,32.684 ZM177.912,24.291 L172.466,24.291 L172.466,20.095 L179.001,20.095 L179.001,16.080 L167.021,16.080 L167.021,37.975 L179.001,37.975 L179.001,33.961 L172.466,33.961 L172.466,28.305 L177.912,28.305 L177.912,24.291 Z" class="cls-1"/>
</svg>
