<svg xmlns="http://www.w3.org/2000/svg" viewBox="0 0 162 69"><path fill="#2A3180" d="M82.3.5c7.2 0 13.1 5.9 13.1 13.1 0 7.2-5.9 13.1-13.1 13.1V.5zm-3.5 38.7c-7.2 0-13.1-5.9-13.1-13.1 0-7.2 5.9-13.1 13.1-13.1v26.2zm-70.6 12c-4.7 0-8.2 3.6-8.2 8.4C0 64.5 3.5 68 8.2 68c1.2 0 3.7-.2 5.8-1.9l.1-.1v-2.3l-.3.3c-1.5 1.4-3.5 2.3-5.5 2.3-3.5 0-6.2-3-6.2-6.8s2.7-6.8 6.3-6.8c2.1 0 3.9.8 5.5 2.3l.3.3V53l-.2.1c-2.2-1.6-4.3-1.9-5.8-1.9zm15.9 0c-4.9 0-8.6 3.6-8.6 8.4 0 4.8 3.7 8.4 8.6 8.4 4.9 0 8.6-3.6 8.6-8.4 0-4.7-3.7-8.4-8.6-8.4zm0 15.2c-3.8 0-6.6-2.9-6.6-6.8s2.8-6.8 6.6-6.8 6.6 2.9 6.6 6.8-2.8 6.8-6.6 6.8zm16.5-8.1l-.5-.2c-1.7-.8-3.1-1.5-3.1-3 0-1 .7-2.2 2.6-2.2 1.6 0 2.3 1.1 2.6 1.7l.1.2 1.6-.9-.1-.2c-.8-1.7-2.2-2.5-4.3-2.5-4.3 0-4.5 3.2-4.5 3.9 0 2.5 2.1 3.7 4.2 4.6 2.1 1 3.4 1.7 3.4 3.5 0 1.9-1.3 3.2-3.1 3.2-2.4 0-3.3-2.2-3.5-2.8l-.1-.2-1.8.9.1.2c.6 1.3 2 3.6 5.2 3.6 3 0 5.2-2.1 5.2-5 0-3-2.3-4-4-4.8zm14.8 6.3l-6.6-14.1-2.2 17.1h1.8l1.4-10.9 5.6 11.8L61 56.6l1.4 11h1.8L62 50.5zm11.2 3h8.7V66h-6.8v-6.4H75v-1.7h-6.5v-4.6h6.8v-1.6h-8.7zm10.6-14.3h4.1v14.3h2V53.3h4.1v-1.6H77.2zm12-1.6h1.9v16h-1.9zm11.7-.5c-4.7 0-8.2 3.6-8.2 8.4 0 4.9 3.5 8.4 8.2 8.4 1.2 0 3.7-.2 5.8-1.9l.1-.1v-2.3l-.3.3c-1.5 1.4-3.5 2.3-5.5 2.3-3.5 0-6.2-3-6.2-6.8s2.7-6.8 6.3-6.8c2.1 0 3.9.8 5.5 2.3l.3.3V53l-.1-.1c-2.4-1.4-4.4-1.7-5.9-1.7zm13.5.5h-4.5v16h1.9v-7.3h2.6c3.2 0 4.9-1.5 4.9-4.3-.1-2.1-.9-4.4-4.9-4.4zm-2.6 1.6h2.6c1.9 0 2.9.9 2.9 2.7 0 1.8-1 2.7-3 2.7h-2.5v-5.4zm6.3 14.3h2l2.2-5.1h6.3l2.2 5.1h2l-7.3-16.7-7.4 16.7zm7.3-12.3l2.4 5.7H123l2.4-5.7zm17.4-4.1c-4.7 0-8.2 3.6-8.2 8.4 0 4.9 3.5 8.4 8.2 8.4 1.2 0 3.7-.2 5.8-1.9l.1-.1v-2.3l-.3.3c-1.5 1.4-3.5 2.3-5.5 2.3-3.5 0-6.2-3-6.2-6.8s2.7-6.8 6.3-6.8c2.1 0 3.9.8 5.5 2.3l.3.3V53l-.1-.1c-2.4-1.4-4.4-1.7-5.9-1.7zm11.5 8.2l7.6-7.7h-2.5l-6.6 6.9v-6.9h-2v15.9h2v-7.2l6.6 7.2h2.6z"/></svg>