<svg xmlns="http://www.w3.org/2000/svg" width="65" height="65" viewBox="0 0 65 65"><path d="M15.506 42.35a.54.54 0 0 0 .539-.543v-28.11c0-.947.82-1.718 1.832-1.718h29.246c1.012 0 1.832.771 1.832 1.718v28.24a.539.539 0 1 0 1.08 0v-28.24c0-1.544-1.305-2.8-2.912-2.8H17.877c-1.605 0-2.912 1.255-2.912 2.8v28.109c0 .301.242.544.541.544z"/><path d="M47.998 21.519v-5.731a.544.544 0 0 0-.4-.524c-.617-.164-15.189-3.961-23.834 3.402a2.59 2.59 0 0 0-.885 1.971v16.778c0 .299.242.54.541.54a.539.539 0 0 0 .543-.54V20.636c0-.456.182-.873.502-1.147 7.445-6.341 20.055-3.832 22.449-3.278v4.769h-6.438a.54.54 0 0 0-.541.54v15.896c0 .299.242.54.541.54a.539.539 0 0 0 .543-.54V22.06h6.438a.54.54 0 0 0 .541-.541zm1.559 21.944H15.443a.543.543 0 0 0-.543.543v8.364c0 1.323 1.26 2.398 2.805 2.398h2.633l-.008 8.622c0 .395.162.767.449 1.062.35.348.854.548 1.381.548h20.682c1.008 0 1.832-.721 1.832-1.604l.004-8.626h2.615c1.549 0 2.807-1.075 2.807-2.398v-8.364a.544.544 0 0 0-.543-.545zm-.536 8.907c0 .728-.775 1.32-1.729 1.32h-3.148a.54.54 0 0 0-.543.54l-.01 9.161c0 .283-.344.522-.75.522H22.16a.889.889 0 0 1-.615-.228.434.434 0 0 1-.135-.295l.012-9.159a.54.54 0 0 0-.541-.542h-3.176c-.951 0-1.727-.593-1.727-1.32v-7.824h33.043v7.825zM43.9 39.419a.54.54 0 0 0 .537-.541.54.54 0 0 0-.537-.541H20.104a.54.54 0 0 0 0 1.082H43.9zm-26.498 2.702c0 .3.244.541.543.541h28.113a.54.54 0 1 0 0-1.079H17.945a.542.542 0 0 0-.543.538z"/></svg>