<svg xmlns="http://www.w3.org/2000/svg" width="50" height="50" viewBox="0 0 50 50"><g fill="#FFF"><path d="M13.896 27.876a.353.353 0 0 0 .352-.354V9.154c0-.619.537-1.123 1.198-1.123h19.109c.661 0 1.198.504 1.198 1.123v18.453a.352.352 0 1 0 .706 0V9.154c0-1.009-.854-1.83-1.903-1.83H15.445c-1.05 0-1.903.82-1.903 1.83v18.368c0 .196.158.354.354.354z"/><path d="M35.127 14.265V10.52c0-.161-.108-.3-.262-.342-.403-.107-9.926-2.589-15.573 2.223a1.69 1.69 0 0 0-.579 1.288v10.964a.353.353 0 0 0 .708 0V13.688a.98.98 0 0 1 .328-.75c4.865-4.143 13.104-2.504 14.67-2.142v3.116h-4.206a.354.354 0 0 0-.354.353v10.387a.354.354 0 0 0 .708 0V14.619h4.206c.197 0 .354-.16.354-.354zm1.019 14.339H13.854a.355.355 0 0 0-.354.354v5.466c0 .864.822 1.567 1.833 1.567h1.721l-.006 5.633c0 .258.105.501.294.693.228.228.558.358.902.358h13.514c.659 0 1.196-.471 1.196-1.049l.004-5.636h1.709c1.011 0 1.833-.703 1.833-1.567v-5.466a.354.354 0 0 0-.354-.353zm-.351 5.82c0 .476-.506.862-1.128.862h-2.059a.353.353 0 0 0-.354.354l-.006 5.986c0 .185-.225.341-.49.341H18.244a.582.582 0 0 1-.402-.148.285.285 0 0 1-.089-.192l.009-5.985a.352.352 0 0 0-.104-.25.358.358 0 0 0-.251-.104h-2.074c-.622 0-1.128-.387-1.128-.862v-5.112h21.59v5.11zm-3.346-8.463a.353.353 0 0 0 0-.707h-15.55a.354.354 0 0 0 0 .707h15.55zm-17.314 1.766c0 .196.159.354.354.354h18.37a.353.353 0 1 0 0-.706h-18.37a.354.354 0 0 0-.354.352z"/></g></svg>