<?xml version="1.0" encoding="utf-8"?>
<!-- Generator: Adobe Illustrator 18.1.1, SVG Export Plug-In . SVG Version: 6.00 Build 0)  -->
<svg version="1.1" id="Слой_1" xmlns="http://www.w3.org/2000/svg" xmlns:xlink="http://www.w3.org/1999/xlink" x="0px" y="0px"
	 viewBox="0 0 141 161" enable-background="new 0 0 141 161" xml:space="preserve">
<linearGradient id="SVGID_1_" gradientUnits="userSpaceOnUse" x1="-4.5" y1="155.4999" x2="135.2487" y2="15.7513">
	<stop  offset="0" style="stop-color:#CFCFCF"/>
	<stop  offset="0.5035" style="stop-color:#FFFFFF"/>
	<stop  offset="1" style="stop-color:#CFCFCF"/>
</linearGradient>
<path fill-rule="evenodd" clip-rule="evenodd" fill="url(#SVGID_1_)" stroke="#878787" stroke-miterlimit="10" d="M0.5,0.5h105
	c19.3,0,35,15.7,35,35v125H0.5V0.5z"/>
<g>
	<g>
		<path fill="#2C509E" d="M55.8,46.4c-1.3-1.2-4.7-4.2-6.3-5c-2.1-1.1-10.3-1.1-12.8-1.1c-3.1,0-6.2,0.1-9,0.3
			c-2,0.2-3.1,1.1-3.4,1.4l-2.9,3.3V21.6h43.7V27h0.5V49L55.8,46.4z"/>
		<path fill="#233D79" d="M65,21.7v5.1v0.4h0.4h0.1V48v0.7l-9.6-2.5c-1.7-1.6-4.8-4.3-6.3-5c-2.1-1-9.7-1.2-12.8-1.2
			c-3.1,0-6.2,0.1-9,0.3c-2.1,0.2-3.2,1.2-3.5,1.5L24.2,42l-2.5,2.9V21.7H65 M65.4,21.4H21.3v24.4l3.2-3.6l0.1-0.1
			c0.3-0.3,1.3-1.2,3.2-1.4l0,0c2.7-0.2,5.9-0.3,9-0.3c2.4,0,10.6,0.1,12.7,1.1c1.5,0.8,4.8,3.7,6.3,5l10.1,2.6V48V26.9
			c-0.2,0-0.3,0-0.5,0V21.4L65.4,21.4z"/>
	</g>
	<g>
		<path fill="#2C509E" d="M76.1,55.1c-2.5,0-4.7-1.7-5.4-4.1l0-0.1h-2.8l-0.5-1.4l-0.8-0.2v-0.3h4l0-0.2c0-0.2,0.1-0.4,0.1-0.6
			l0.1-0.2h-4.2V27h12.2l7.7,9.9v6.3l1.2,1.2V48l-6.2,0l0.1,0.2c0,0.2,0.1,0.4,0.1,0.6l0,0.2h5.1l0,1.9h-5.2l0,0.1
			C80.8,53.4,78.6,55.1,76.1,55.1z M76.1,46.6c-1.6,0-2.9,1.3-2.9,2.9c0,1.6,1.3,2.9,2.9,2.9c1.6,0,2.9-1.3,2.9-2.9
			C79,47.9,77.7,46.6,76.1,46.6z M68.6,36.7h14.8L77.9,29h-9.3V36.7z"/>
		<path fill="#233D79" d="M78.7,27.2l7.6,9.8v6.2v0.1l0.1,0.1l1.1,1.1v3.2l-4.2,0h-1.6h-0.4l0.1,0.4c0,0.2,0.1,0.4,0.1,0.6l0,0.3
			h0.3h4.8l0,1.5h-4.9h-0.3l-0.1,0.3c-0.6,2.3-2.8,4-5.2,4c-2.4,0-4.6-1.6-5.2-4l-0.1-0.3h-0.3h-1.8h-0.7l-0.4-1.2l-0.1-0.2l-0.2,0
			L67,49.1h0.6h1.2h1.7h0.3l0-0.3c0-0.2,0.1-0.4,0.1-0.6l0.1-0.4h-0.4h-1.6h-2.1V27.2H78.7 M68.4,36.8h0.4h14.3h0.7l-0.4-0.6
			L78.1,29L78,28.9h-0.2h-9.1h-0.4v0.4v7.3V36.8 M76.1,52.6c1.7,0,3.1-1.4,3.1-3.1c0-1.7-1.4-3.1-3.1-3.1c-1.7,0-3.1,1.4-3.1,3.1
			C73,51.2,74.4,52.6,76.1,52.6 M78.9,26.8c-3,0-12.5,0-12.5,0v21.3h2.5h1.6c0,0.2-0.1,0.4-0.1,0.6h-1.7h-1.2h-1.1v0.6l0.8,0.2
			l0.5,1.4h0.9h1.8c0.7,2.4,2.9,4.2,5.5,4.2c2.6,0,4.9-1.8,5.5-4.2h5.2l0.1-2.2h-5.1c0-0.2-0.1-0.4-0.1-0.6h1.6l4.6,0v-3.7l-1.2-1.2
			v-6.3L78.9,26.8L78.9,26.8z M68.8,36.5v-7.3h9.1l5.2,7.3H68.8L68.8,36.5z M76.1,52.2c-1.5,0-2.7-1.2-2.7-2.7
			c0-1.5,1.2-2.7,2.7-2.7c1.5,0,2.7,1.2,2.7,2.7C78.9,51,77.6,52.2,76.1,52.2L76.1,52.2z"/>
	</g>
	<g>
		<path fill="#2C509E" d="M58.4,62.4c-2.2,0-4.1-1.7-4.2-3.9l0-0.2l-22.9,0l0,0.2c-0.2,2.2-2.1,3.9-4.2,3.9c-1.8,0-3.4-1.1-4-2.8
			l0-0.1h-2.3v-1.2h-0.7l0-5l1.1-3.6l5.4-6c0,0,0.6-0.5,1.8-0.7c2.7-0.2,5.7-0.3,8.8-0.3c5.6,0,10.6,0.4,11.6,0.9
			c1.5,0.8,6.1,5,6.2,5l11,2.8l1,2.8l0.9,0.8l-0.6,3.2h-0.8v1.2h-3.9l0,0.1C61.8,61.3,60.2,62.4,58.4,62.4z M58.4,56.3
			c-1,0-1.8,0.8-1.8,1.8c0,1,0.8,1.8,1.8,1.8c1,0,1.8-0.8,1.8-1.8C60.2,57.1,59.4,56.3,58.4,56.3z M27,56.3c-1,0-1.8,0.8-1.8,1.8
			c0,0.5,0.2,0.9,0.5,1.3c0.3,0.3,0.8,0.5,1.3,0.5c1,0,1.8-0.8,1.8-1.8C28.8,57.1,28,56.3,27,56.3z M39.2,48.9h11.4l-3.4-4.2l-0.1,0
			c-0.1,0-5.1-0.4-7.8-0.5l-0.2,0V48.9z M35.2,44.2c-3.7,0-6.3,0.3-6.3,0.3l-0.1,0l-3.5,4.3h11.4v-4.7l-0.2,0
			C36.1,44.2,35.7,44.2,35.2,44.2z"/>
		<path fill="#233D79" d="M37,42.6v0.4c6.4,0,10.7,0.4,11.6,0.9c1.5,0.7,6.1,4.9,6.1,5l0.1,0.1l0.1,0l10.8,2.8l1,2.7l0,0.1l0.1,0.1
			l0.8,0.7l-0.6,3h-0.5h-0.4v0.4v0.8h-3.6h-0.2l-0.1,0.2c-0.6,1.6-2.1,2.6-3.8,2.6c-2.1,0-3.9-1.6-4.1-3.7l0-0.3H54l-22.6,0h-0.3
			l0,0.3c-0.2,2.1-2,3.7-4.1,3.7c-1.7,0-3.2-1.1-3.8-2.6l-0.1-0.2h-0.2h-2v-0.8v-0.4h-0.3h-0.3l0-4.8l1.1-3.5l5.4-6
			c0,0,0.5-0.5,1.7-0.6c2.7-0.2,5.7-0.3,8.8-0.3L37,42.6 M36.5,49.1h0.4v-0.4v-4.3v-0.3l-0.3,0c-0.5,0-0.9,0-1.3,0
			c-3.7,0-6.3,0.3-6.4,0.3l-0.1,0l-0.1,0.1l-3.3,4l-0.5,0.6h0.7L36.5,49.1 M39,49.1h0.4h10.9H51l-0.5-0.6l-3.1-3.9l-0.1-0.1l-0.1,0
			c-0.1,0-5.1-0.4-7.8-0.5l-0.4,0l0,0.4l0,4.3V49.1 M58.4,60.1c1.1,0,2-0.9,2-2c0-1.1-0.9-2-2-2c-1.1,0-2,0.9-2,2
			C56.4,59.2,57.3,60.1,58.4,60.1 M27,60.1c1.1,0,2-0.9,2-2c0-1.1-0.9-2-2-2c-1.1,0-2,0.9-2,2c0,0.5,0.2,1,0.6,1.4
			C26,59.9,26.5,60.1,27,60.1 M37,42.6c-2.9,0-5.9,0.1-8.8,0.3c-1.3,0.1-1.9,0.7-1.9,0.7l-5.4,6.1l-1.2,3.6l0,5.1l0,0
			c0,0,0,0.1,0,0.1h0.7v1.2h2.4c0.6,1.7,2.3,2.9,4.2,2.9c2.3,0,4.2-1.8,4.4-4l22.6,0c0.2,2.3,2.1,4,4.4,4c1.9,0,3.5-1.2,4.2-2.9h3.9
			v-1.2h0.8L68,55l-1-0.8l-1-2.9l-11-2.8c0,0-4.7-4.3-6.2-5C47.7,42.9,42.8,42.6,37,42.6L37,42.6z M25.7,48.7l3.3-4
			c0,0,2.6-0.3,6.3-0.3c0.4,0,0.9,0,1.3,0v4.3v0v0v0v0L25.7,48.7L25.7,48.7z M39.4,48.8v-4.3c2.8,0,7.8,0.5,7.8,0.5l3.1,3.9H39.4
			L39.4,48.8L39.4,48.8L39.4,48.8z M58.4,59.7c-0.9,0-1.6-0.7-1.6-1.6c0-0.9,0.7-1.6,1.6-1.6c0.9,0,1.6,0.7,1.6,1.6
			C60.1,59,59.3,59.7,58.4,59.7L58.4,59.7z M27,59.7c-0.9,0-1.6-0.7-1.6-1.6c0-0.9,0.7-1.6,1.6-1.6c0.9,0,1.6,0.7,1.6,1.6
			C28.6,59,27.9,59.7,27,59.7L27,59.7z"/>
	</g>
</g>
</svg>
