<svg xmlns="http://www.w3.org/2000/svg" width="50" height="50" viewBox="0 0 50 50"><g fill="#FFF"><path d="M38 28.893c0-2.153-.395-4.231-1.164-6.163-.016-.045-2.047-4.819-5.372-6.77l-.08-.05-12.672-.06-.091.052c-3.857 2.285-5.441 6.783-5.446 6.801A16.618 16.618 0 0 0 12 28.893c0 3.786 1.23 7.37 3.462 10.129a4.027 4.027 0 0 0 4 4.435h11.074a4.026 4.026 0 0 0 4.001-4.435C36.77 36.262 38 32.676 38 28.893zm-4.203 10.065c.022.158.029.317.029.479a3.295 3.295 0 0 1-3.29 3.29H19.462a3.295 3.295 0 0 1-3.288-3.29c0-.161.007-.32.029-.479l.023-.156-.102-.127c-2.186-2.64-3.394-6.114-3.394-9.781 0-2.052.376-4.047 1.132-5.942.011-.04 1.517-4.226 5.048-6.369l12.271.059c3.029 1.84 4.944 6.279 4.963 6.333a15.872 15.872 0 0 1 1.124 5.918c0 3.665-1.208 7.141-3.394 9.781l-.102.127.025.157z"/><path d="M34.965 23.802c-.01-.035-1.453-3.767-3.859-5.307l-.396.62c2.157 1.379 3.544 4.868 3.558 4.912.524 1.444.797 2.984.799 4.572 0 2.838-.857 5.522-2.405 7.562l.584.44c1.646-2.167 2.552-5.008 2.552-8.002a14.05 14.05 0 0 0-.833-4.797zm-4.254-10.324l-10.5.599a.376.376 0 0 0-.35.387.37.37 0 0 0 .369.346l.02-.001 10.5-.602a.37.37 0 0 0 .349-.384c-.016-.203-.147-.348-.388-.345zm-.017-2.311l-10.507.6a.367.367 0 0 0 .027.732l.019-.001 10.499-.602a.369.369 0 0 0 .348-.383c-.012-.203-.152-.356-.386-.346zm-10.506-.979l.027-.001 10.499-.602a.359.359 0 0 0 .341-.384c-.005-.202-.152-.35-.381-.345l-10.506.6a.362.362 0 0 0-.341.386.36.36 0 0 0 .361.346zm0-2.311l.027-.001 10.499-.602a.359.359 0 0 0 .341-.384c-.005-.202-.152-.354-.381-.345l-10.506.601a.36.36 0 0 0-.341.385.36.36 0 0 0 .361.346z"/></g></svg>