<svg xmlns="http://www.w3.org/2000/svg" width="50" height="50" viewBox="0 0 50 50"><g fill="#FFF"><path d="M7.535 15.326l-3.451 9.358a1.44 1.44 0 0 0 1.364 1.923l8.133-.008.005 9.62c0 .524.434.949.958.949h11.998c.81 0 1.466-.656 1.466-1.461v-9.12l1.821-.004c.856 0 1.65.427 2.126 1.14.488.735.976 1.77 1.491 2.869 1.136 2.396 2.412 5.117 4.501 6.771.235.18.505.279.787.279.425 0 .841-.224 1.086-.577a1.27 1.27 0 0 0 .138-1.181c-1.766-4.638-3.814-14.266-4.22-16.223h10.25L46 12.356l-33.586.016c-2.449.001-4.224 1.08-4.879 2.954zm37.868 3.755H35.026l.068.349c.021.114 2.336 11.464 4.314 16.663a.686.686 0 0 1-.068.641c-.232.333-.699.434-1.028.172-1.981-1.568-3.237-4.22-4.341-6.562-.524-1.119-1.024-2.173-1.532-2.943a3.125 3.125 0 0 0-2.618-1.398l-2.399.005v9.701a.883.883 0 0 1-.881.883H14.543a.372.372 0 0 1-.372-.371l-.007-10.204-8.717.003a.846.846 0 0 1-.702-.36.857.857 0 0 1-.116-.776l3.451-9.36c.782-2.23 3.05-2.568 4.334-2.568l33-.014-.011 6.139z"/><path d="M24.942 28.188a.293.293 0 0 0-.291.294v7.117c0 .161.131.293.291.293a.294.294 0 0 0 .293-.293v-7.117a.294.294 0 0 0-.293-.294zm-4.147 0a.29.29 0 0 0-.29.294v7.117a.289.289 0 1 0 .577 0v-7.117a.289.289 0 0 0-.287-.294zm-4.151 0a.295.295 0 0 0-.293.294v7.117c0 .161.133.293.293.293s.293-.132.293-.293v-7.117a.295.295 0 0 0-.293-.294zm-8.882-8.902c0 .164.132.293.293.293h25.688a.29.29 0 1 0 0-.582H8.055a.29.29 0 0 0-.293.289zM26.152 26H15.058a.294.294 0 0 0-.293.292.29.29 0 0 0 .293.291h11.095a.29.29 0 0 0 .293-.291.295.295 0 0 0-.294-.292zm14.3-7.881a.29.29 0 0 0 .293-.289v-4.087a.294.294 0 0 0-.293-.293c-.16 0-.29.132-.29.293v4.087c0 .161.13.289.29.289z"/></g></svg>