<svg xmlns="http://www.w3.org/2000/svg" xmlns:xlink="http://www.w3.org/1999/xlink" preserveAspectRatio="xMidYMid" width="46.656" height="62.687" viewBox="0 0 46.656 62.687">
  <defs>
    <style>
      .cls-1 {
        fill: #c3c3c3;
        filter: url(#inner-shadow-1);
        fill-rule: evenodd;
      }
    </style>

    <filter id="inner-shadow-1" filterUnits="userSpaceOnUse">
      <feOffset dx="0.5" dy="0.866" in="SourceAlpha"/>
      <feGaussianBlur result="innerShadowBlur"/>
      <feFlood flood-color="#5e5e5e"/>
      <feComposite operator="out" in2="innerShadowBlur"/>
      <feComposite operator="in" in2="SourceAlpha"/>
      <feBlend mode="overlay" in2="SourceGraphic" result="innerShadow"/>
    </filter>
  </defs>
  <path d="M46.501,19.277 L43.433,23.467 C43.240,23.736 43.228,24.108 43.420,24.377 L46.424,28.606 C46.694,28.990 46.566,29.528 46.155,29.746 L41.571,32.194 C41.276,32.348 41.109,32.681 41.173,33.014 L42.034,38.127 C42.111,38.588 41.764,39.024 41.289,39.037 L36.102,39.255 C35.768,39.268 35.473,39.498 35.383,39.819 L33.932,44.804 C33.804,45.252 33.303,45.496 32.867,45.303 L28.091,43.253 C27.783,43.125 27.423,43.202 27.192,43.445 L23.726,47.302 C23.405,47.648 22.865,47.648 22.544,47.290 L19.129,43.381 C18.911,43.125 18.552,43.048 18.243,43.176 L13.442,45.150 C13.005,45.329 12.517,45.086 12.389,44.637 L11.015,39.639 C10.925,39.319 10.643,39.088 10.309,39.063 L5.122,38.768 C4.647,38.742 4.313,38.306 4.390,37.845 L5.328,32.745 C5.392,32.412 5.225,32.079 4.942,31.925 L0.398,29.413 C-0.013,29.208 -0.129,28.670 0.154,28.285 L3.222,24.095 C3.415,23.826 3.427,23.454 3.235,23.185 L0.231,18.956 C-0.039,18.572 0.089,18.034 0.500,17.816 L5.084,15.368 C5.379,15.214 5.546,14.881 5.482,14.548 L4.622,9.435 C4.544,8.974 4.891,8.538 5.366,8.525 L10.553,8.307 C10.887,8.294 11.182,8.064 11.272,7.743 L12.710,2.746 C12.838,2.297 13.339,2.054 13.776,2.246 L18.552,4.296 C18.860,4.424 19.219,4.348 19.450,4.104 L22.917,0.247 C23.238,-0.099 23.777,-0.099 24.098,0.260 L27.513,4.168 C27.731,4.424 28.091,4.501 28.399,4.373 L33.201,2.400 C33.637,2.220 34.125,2.464 34.253,2.912 L35.627,7.910 C35.717,8.230 35.999,8.461 36.333,8.487 L41.520,8.781 C41.995,8.807 42.329,9.243 42.252,9.704 L41.315,14.804 C41.250,15.137 41.417,15.471 41.700,15.624 L46.245,18.136 C46.656,18.367 46.771,18.905 46.501,19.277 ZM23.315,9.717 C15.547,9.717 9.218,16.035 9.218,23.787 C9.218,31.553 15.547,37.858 23.315,37.858 C31.082,37.858 37.412,31.540 37.412,23.787 C37.412,16.035 31.082,9.717 23.315,9.717 ZM32.302,22.250 L28.232,25.684 L29.503,30.848 C29.747,31.822 28.681,32.591 27.834,32.066 L23.315,29.259 L18.796,32.066 C17.948,32.591 16.883,31.822 17.126,30.848 L18.397,25.684 L14.328,22.250 C13.557,21.609 13.955,20.366 14.957,20.289 L20.272,19.905 L22.275,14.984 C22.647,14.061 23.970,14.061 24.342,14.984 L26.345,19.905 L31.660,20.289 C32.661,20.366 33.059,21.609 32.302,22.250 ZM10.617,46.956 C11.362,47.712 12.402,48.161 13.519,48.161 C13.917,48.161 14.315,48.097 14.687,47.994 L17.999,46.995 L20.554,49.327 C20.644,49.404 20.721,49.481 20.811,49.545 L16.703,62.257 C16.562,62.706 15.984,62.808 15.689,62.437 L12.697,58.605 C12.556,58.413 12.299,58.336 12.081,58.400 L7.420,59.758 C6.971,59.886 6.560,59.464 6.701,59.028 L10.617,46.956 ZM28.617,46.995 L31.930,47.994 C32.315,48.110 32.700,48.161 33.098,48.161 C34.215,48.161 35.242,47.712 35.999,46.956 L39.915,59.041 C40.056,59.489 39.646,59.899 39.196,59.771 L34.536,58.413 C34.305,58.349 34.061,58.426 33.920,58.618 L30.928,62.449 C30.646,62.821 30.055,62.718 29.914,62.270 L25.805,49.558 C25.895,49.494 25.985,49.417 26.062,49.340 L28.617,46.995 Z" class="cls-1"/>
</svg>
