<svg xmlns="http://www.w3.org/2000/svg" xmlns:xlink="http://www.w3.org/1999/xlink" preserveAspectRatio="xMidYMid" width="68" height="64" viewBox="0 0 68 64">
  <defs>
    <style>
      .cls-1 {
        fill: #fff;
        fill-rule: evenodd;
      }
    </style>
  </defs>
  <path d="M39.474,3.697 C39.182,3.251 39.088,2.949 39.088,2.949 L39.228,2.822 C39.228,2.822 39.498,2.933 39.971,3.125 C40.194,3.214 40.468,3.322 40.781,3.444 C41.088,3.555 41.424,3.684 41.785,3.771 C41.962,3.825 42.143,3.879 42.329,3.900 C42.422,3.912 42.513,3.938 42.605,3.955 C42.697,3.961 42.789,3.964 42.881,3.976 C43.254,4.025 43.596,3.985 43.970,3.966 C44.143,3.902 44.337,3.884 44.526,3.804 C44.699,3.703 44.926,3.644 45.087,3.514 C45.172,3.456 45.260,3.395 45.355,3.336 C45.454,3.281 45.558,3.238 45.663,3.125 L46.325,2.574 C46.331,2.566 46.286,2.631 46.308,2.601 L46.312,2.596 L46.324,2.586 L46.345,2.567 L46.390,2.529 L46.476,2.452 L46.650,2.301 L46.978,1.993 C47.184,1.782 47.443,1.619 47.652,1.415 C47.856,1.206 48.131,1.077 48.349,0.874 C48.583,0.691 48.857,0.554 49.121,0.378 C49.675,0.119 50.324,-0.073 50.904,0.008 C51.049,0.023 51.191,0.046 51.330,0.071 C51.464,0.108 51.590,0.154 51.715,0.200 C51.971,0.284 52.192,0.404 52.399,0.522 C52.814,0.760 53.144,1.035 53.408,1.301 C53.670,1.568 53.867,1.828 54.009,2.055 C54.158,2.277 54.243,2.472 54.304,2.606 C54.355,2.744 54.381,2.818 54.381,2.818 L54.242,2.947 C54.242,2.947 53.943,2.847 53.486,2.658 C53.263,2.569 52.993,2.459 52.682,2.335 C52.382,2.213 52.053,2.078 51.704,1.961 C51.530,1.898 51.351,1.832 51.170,1.789 C51.077,1.766 50.987,1.731 50.895,1.704 C50.803,1.686 50.710,1.663 50.618,1.632 C50.245,1.511 49.858,1.393 49.380,1.343 C49.160,1.372 48.898,1.362 48.669,1.457 C48.449,1.567 48.197,1.653 48.020,1.849 C47.841,2.038 47.638,2.204 47.514,2.446 L47.332,2.805 L47.250,2.986 L47.209,3.076 L47.189,3.122 L47.179,3.143 L47.175,3.154 L47.172,3.161 C47.189,3.134 47.143,3.203 47.146,3.199 L46.789,3.979 C46.672,4.230 46.403,4.514 46.184,4.764 C45.961,5.036 45.663,5.193 45.397,5.406 C45.119,5.599 44.780,5.711 44.470,5.851 C43.809,6.038 43.119,6.071 42.538,5.918 C42.241,5.853 41.968,5.767 41.727,5.643 C41.476,5.538 41.259,5.407 41.054,5.280 C40.648,5.013 40.325,4.731 40.070,4.454 C39.809,4.186 39.617,3.921 39.474,3.697 ZM68.000,47.938 L68.000,63.999 L-0.000,63.999 L-0.000,47.938 L4.632,47.938 L4.632,29.896 L17.685,20.822 L17.685,29.896 L30.736,20.822 L30.736,29.896 L43.789,20.822 L43.789,38.657 L48.293,38.657 L50.738,7.109 L58.204,7.109 L60.345,38.657 L65.367,38.657 L65.367,47.939 L68.000,47.939 L68.000,47.938 ZM21.316,41.002 L11.054,41.002 L11.054,50.388 L21.316,50.388 L21.316,41.002 ZM38.999,41.002 L28.737,41.002 L28.737,50.388 L38.999,50.388 L38.999,41.002 ZM56.904,41.002 L46.642,41.002 L46.642,50.388 L56.904,50.388 L56.904,41.002 Z" class="cls-1"/>
</svg>
