<svg xmlns="http://www.w3.org/2000/svg" xmlns:xlink="http://www.w3.org/1999/xlink" width="16.106" height="16.105" viewBox="0 0 16.106 16.105"><defs><path id="a" d="M.053.053h16v15.998h-16z"/></defs><clipPath id="b"><use xlink:href="#a" overflow="visible"/></clipPath><g clip-path="url(#b)"><path fill="#FFF" d="M12.045 11.328l2.866 2.866a.504.504 0 1 1-.715.715l-2.867-2.866a8.33 8.33 0 0 0 .716-.715m-.102-1.506a7.065 7.065 0 0 1-2.122 2.119l3.672 3.671a1.49 1.49 0 0 0 1.061.439c.383 0 .767-.146 1.06-.439a1.496 1.496 0 0 0 0-2.12l-3.671-3.67z"/></g><g clip-path="url(#b)"><path fill="#FFF" d="M6.053 1.046a5.012 5.012 0 0 1 5.008 5.005 5.013 5.013 0 0 1-5.008 5.006 5.013 5.013 0 0 1-5.007-5.006 5.012 5.012 0 0 1 5.007-5.005m0-.993c-3.312 0-6 2.687-6 5.999a6 6 0 0 0 12.001 0A6 6 0 0 0 6.053.053"/></g><g clip-path="url(#b)"><path fill="#FFF" d="M3.05 6.052h-.993a4 4 0 0 1 3.996-3.996v.993A3.006 3.006 0 0 0 3.05 6.052z"/></g></svg>