<svg xmlns="http://www.w3.org/2000/svg" xmlns:xlink="http://www.w3.org/1999/xlink" preserveAspectRatio="xMidYMid" width="83.438" height="34.375" viewBox="0 0 83.438 34.375">
  <defs>
    <style>
      .cls-1 {
        fill: #c3c3c3;
        filter: url(#inner-shadow-1);
        fill-rule: evenodd;
      }
    </style>

    <filter id="inner-shadow-1" filterUnits="userSpaceOnUse">
      <feOffset dx="0.5" dy="0.866" in="SourceAlpha"/>
      <feGaussianBlur result="innerShadowBlur"/>
      <feFlood flood-color="#5e5e5e"/>
      <feComposite operator="out" in2="innerShadowBlur"/>
      <feComposite operator="in" in2="SourceAlpha"/>
      <feBlend mode="overlay" in2="SourceGraphic" result="innerShadow"/>
    </filter>
  </defs>
  <path d="M76.807,32.167 L41.745,32.167 C41.288,33.457 40.074,34.387 38.637,34.387 L33.119,34.387 L33.119,19.961 C33.119,19.347 32.626,18.852 32.015,18.852 L27.601,18.852 L27.601,17.742 L28.704,17.742 C29.315,17.742 29.808,17.246 29.808,16.632 C29.808,16.018 29.315,15.523 28.704,15.523 L24.290,15.523 C23.679,15.523 23.186,16.019 23.186,16.632 C23.186,17.246 23.679,17.742 24.290,17.742 L25.393,17.742 L25.393,18.851 L20.979,18.851 C20.610,18.851 20.266,19.037 20.060,19.345 L17.853,22.674 C17.733,22.856 17.668,23.071 17.668,23.290 L17.668,26.619 C17.668,26.738 17.687,26.856 17.725,26.969 L18.647,34.386 L17.679,34.386 C16.050,34.386 14.640,33.488 13.871,32.167 L3.331,32.167 C1.500,32.167 0.009,30.668 0.009,28.827 L0.009,24.942 C0.009,23.560 0.666,22.240 1.766,21.411 L13.694,12.415 C13.782,12.350 13.877,12.300 13.976,12.263 C15.204,9.606 17.877,7.755 20.979,7.755 L27.601,7.755 L27.601,4.426 C27.601,1.978 29.581,-0.013 32.015,-0.013 C34.450,-0.013 36.430,1.978 36.430,4.426 L36.430,7.755 C40.195,7.755 41.948,13.714 41.948,17.742 L41.948,18.851 L76.807,18.851 C80.459,18.851 83.429,21.837 83.429,25.509 C83.429,29.181 80.459,32.167 76.807,32.167 ZM13.253,21.071 L7.367,25.509 L13.253,25.509 L13.253,21.071 ZM34.223,4.426 C34.223,3.202 33.233,2.207 32.015,2.207 C30.798,2.207 29.808,3.202 29.808,4.426 L29.808,7.755 L34.223,7.755 L34.223,4.426 ZM76.807,21.071 L41.948,21.071 L41.948,29.948 L76.807,29.948 C79.242,29.948 81.222,27.957 81.222,25.509 C81.222,23.061 79.242,21.071 76.807,21.071 ZM76.807,26.619 L45.259,26.619 C44.649,26.619 44.156,26.123 44.156,25.509 C44.156,24.896 44.649,24.400 45.259,24.400 L76.807,24.400 C77.417,24.400 77.911,24.896 77.911,25.509 C77.911,26.123 77.417,26.619 76.807,26.619 ZM30.912,21.071 L30.912,34.387 L20.772,34.387 L19.875,26.439 L19.875,23.626 L21.569,21.071 L30.912,21.071 ZM24.290,29.948 L27.601,29.948 C28.211,29.948 28.704,29.452 28.704,28.838 C28.704,28.225 28.211,27.729 27.601,27.729 L24.290,27.729 C23.679,27.729 23.186,28.225 23.186,28.838 C23.186,29.452 23.679,29.948 24.290,29.948 ZM24.290,25.509 L27.601,25.509 C28.211,25.509 28.704,25.013 28.704,24.400 C28.704,23.786 28.211,23.290 27.601,23.290 L24.290,23.290 C23.679,23.290 23.186,23.786 23.186,24.400 C23.186,25.013 23.679,25.509 24.290,25.509 Z" class="cls-1"/>
</svg>
